<svg width="44" height="44" viewBox="0 0 44 44" fill="none" xmlns="http://www.w3.org/2000/svg">
<g id="&#208;&#160;&#208;&#181;&#208;&#183;&#209;&#131;&#208;&#187;&#209;&#140;&#209;&#130;&#208;&#176;&#209;&#130;&#209;&#139; &#208;&#176;&#208;&#189;&#208;&#176;&#208;&#187;&#208;&#184;&#208;&#183;&#208;&#190;&#208;&#178;">
<g id="0">
<rect id="Rectangle 13966" x="9" y="9.29004" width="24.335" height="24.0083" rx="4" fill="#9DCFC8"/>
<path id="Union" fill-rule="evenodd" clip-rule="evenodd" d="M16.007 18.8068L18.632 16.1818C18.9703 15.8435 18.9703 15.2835 18.632 14.9452C18.282 14.6068 17.7336 14.6068 17.3953 14.9452L15.3886 16.9518L15.132 16.6952C14.782 16.3568 14.2336 16.3568 13.8953 16.6952C13.5453 17.0335 13.5453 17.5935 13.8953 17.9318L14.7703 18.8068C14.9336 18.9818 15.167 19.0635 15.3886 19.0635C15.6103 19.0635 15.832 18.9818 16.007 18.8068ZM27.4844 18.1885C27.9744 18.1885 28.3594 17.7918 28.3594 17.3135C28.3594 16.8351 27.9744 16.4385 27.4844 16.4385H21.3594C20.881 16.4385 20.4844 16.8351 20.4844 17.3135C20.4844 17.7918 20.881 18.1885 21.3594 18.1885H27.4844ZM28.3594 25.4805C28.3594 25.9588 27.9744 26.3555 27.4844 26.3555H21.3594C20.881 26.3555 20.4844 25.9588 20.4844 25.4805C20.4844 25.0021 20.881 24.6055 21.3594 24.6055H27.4844C27.9744 24.6055 28.3594 25.0021 28.3594 25.4805ZM16.007 26.9738L18.632 24.3488C18.9703 24.0105 18.9703 23.4505 18.632 23.1121C18.282 22.7738 17.7336 22.7738 17.3953 23.1121L15.3886 25.1188L15.132 24.8621C14.782 24.5238 14.2336 24.5238 13.8953 24.8621C13.5453 25.2005 13.5453 25.7605 13.8953 26.0988L14.7703 26.9738C14.9336 27.1488 15.167 27.2305 15.3886 27.2305C15.6103 27.2305 15.832 27.1488 16.007 26.9738Z" fill="url(#paint0_linear_912_39614)"/>
</g>
</g>
<defs>
<linearGradient id="paint0_linear_912_39614" x1="11.9388" y1="9.39711" x2="32.3128" y2="9.7218" gradientUnits="userSpaceOnUse">
<stop stop-color="#1F877B"/>
<stop offset="1" stop-color="#1F877B" stop-opacity="0.66"/>
</linearGradient>
</defs>
</svg>
