<svg width="19" height="17" viewBox="0 0 19 17" fill="none" xmlns="http://www.w3.org/2000/svg">
<g clip-path="url(#clip0_912_39606)">
<path d="M13.5465 6.34558L14.9478 7.74687L7.535 7.74687C7.35495 7.74687 7.18227 7.8184 7.05496 7.94571C6.92764 8.07303 6.85612 8.2457 6.85612 8.42575C6.85612 8.6058 6.92764 8.77848 7.05496 8.90579C7.18227 9.03311 7.35495 9.10463 7.535 9.10463L14.9478 9.10463L13.5465 10.5059C13.4832 10.5689 13.4329 10.6438 13.3985 10.7262C13.3642 10.8086 13.3464 10.897 13.3463 10.9863C13.3462 11.0756 13.3637 11.1641 13.3978 11.2466C13.4319 11.3292 13.482 11.4042 13.5452 11.4673C13.6083 11.5305 13.6833 11.5805 13.7658 11.6146C13.8484 11.6488 13.9368 11.6663 14.0261 11.6661C14.1154 11.666 14.2038 11.6483 14.2863 11.6139C14.3687 11.5796 14.4436 11.5293 14.5065 11.466L17.0668 8.9058C17.1298 8.84276 17.1798 8.76792 17.2139 8.68556C17.2481 8.60319 17.2656 8.51491 17.2656 8.42575C17.2656 8.3366 17.2481 8.24832 17.2139 8.16595C17.1798 8.08358 17.1298 8.00874 17.0668 7.9457L14.5066 5.38551C14.4436 5.32219 14.3687 5.27191 14.2863 5.23757C14.2038 5.20322 14.1154 5.18548 14.0261 5.18536C13.9368 5.18524 13.8484 5.20274 13.7658 5.23686C13.6833 5.27098 13.6083 5.32105 13.5452 5.3842C13.482 5.44735 13.4319 5.52234 13.3978 5.60487C13.3637 5.6874 13.3462 5.77586 13.3463 5.86516C13.3464 5.95447 13.3642 6.04287 13.3985 6.12531C13.4329 6.20775 13.4832 6.2826 13.5465 6.34558Z" fill="#5B5B5B"/>
</g>
<path d="M9.50586 15.8836C9.50586 15.6538 9.41458 15.4335 9.2521 15.271C9.08962 15.1085 8.86926 15.0172 8.63948 15.0172L1.99724 15.0172L1.99724 1.73276L8.63948 1.73276C8.86926 1.73276 9.08963 1.64148 9.2521 1.479C9.41458 1.31652 9.50586 1.09616 9.50586 0.866379C9.50586 0.636601 9.41458 0.416234 9.2521 0.253757C9.08963 0.091279 8.86926 -2.78267e-08 8.63948 -3.78706e-08L1.70845 -3.40836e-07C1.32548 -3.57576e-07 0.958203 0.152131 0.687407 0.422927C0.416612 0.693723 0.26448 1.061 0.26448 1.44397L0.264479 15.306C0.264479 15.689 0.416611 16.0563 0.687407 16.3271C0.958203 16.5979 1.32548 16.75 1.70844 16.75L8.63948 16.75C8.86926 16.75 9.08962 16.6587 9.2521 16.4962C9.41458 16.3338 9.50586 16.1134 9.50586 15.8836Z" fill="#5B5B5B"/>
<defs>
<clipPath id="clip0_912_39606">
<rect width="8.77381" height="11.9643" fill="white" transform="translate(18.6094 3.98809) rotate(90)"/>
</clipPath>
</defs>
</svg>
