<svg width="61" height="61" viewBox="0 0 61 61" fill="none" xmlns="http://www.w3.org/2000/svg">
<g id="Group 1948754677">
<path id="Vector" d="M30.4965 33.8316C31.3664 32.3068 31.9307 30.6309 32.5319 28.8541C33.1532 27.0136 33.7947 25.1059 34.8157 23.3527C36.1793 21.0435 38.1204 19.129 40.4482 17.7975V3.31163C40.4482 2.87646 40.3624 2.44555 40.1958 2.04355C40.0292 1.64154 39.7849 1.27632 39.477 0.968764C39.1692 0.661208 38.8037 0.417348 38.4015 0.251121C37.9994 0.0848941 37.5684 -0.000439644 37.1332 1.70682e-06H23.88C23.445 -0.000440155 23.0141 0.0849145 22.6122 0.251183C22.2102 0.417451 21.8449 0.661368 21.5373 0.968969C21.2297 1.27657 20.9858 1.64182 20.8195 2.0438C20.6533 2.44579 20.5679 2.87661 20.5684 3.31163V20.5684H3.31163C2.87661 20.5679 2.44579 20.6533 2.0438 20.8195C1.64182 20.9858 1.27657 21.2297 0.968969 21.5373C0.661369 21.8449 0.417456 22.2102 0.251188 22.6122C0.0849196 23.0141 -0.000440156 23.445 1.70671e-06 23.88V37.1332C-0.000439644 37.5684 0.0848941 37.9994 0.251121 38.4015C0.417348 38.8037 0.661213 39.1692 0.968769 39.477C1.27633 39.7849 1.64154 40.0291 2.04355 40.1958C2.44555 40.3624 2.87646 40.4482 3.31163 40.4482H20.4407C22.5124 40.1915 24.4971 39.4612 26.241 38.3138C27.9849 37.1663 29.441 35.6326 30.4965 33.8316Z" fill="url(#paint0_linear_44_9974)"/>
<path id="Vector_2" d="M57.6996 20.5684H40.4765C39.0024 21.6224 37.7656 22.9736 36.8458 24.5349C35.9456 26.0833 35.368 27.7962 34.7567 29.6065C34.1454 31.4168 33.5207 33.2741 32.5366 34.9803C31.283 37.1199 29.5489 38.9386 27.4714 40.2927C25.3939 41.6468 23.03 42.4992 20.5664 42.7824V57.6848C20.566 58.1199 20.6513 58.5509 20.8175 58.9531C20.9838 59.3553 21.2276 59.7207 21.5352 60.0286C21.8427 60.3365 22.2079 60.5807 22.61 60.7473C23.012 60.914 23.4429 60.9997 23.878 60.9997H37.1178C37.5531 60.9997 37.9842 60.914 38.3864 60.7474C38.7886 60.5808 39.154 60.3366 39.4619 60.0288C39.7697 59.721 40.0139 59.3555 40.1805 58.9534C40.347 58.5512 40.4328 58.1201 40.4328 57.6848V40.4482H57.6862C58.5653 40.4482 59.4085 40.0989 60.0302 39.4773C60.6519 38.8556 61.0011 38.0124 61.0011 37.1332V23.88C61.0011 23.0034 60.6536 22.1626 60.0348 21.5419C59.4159 20.9211 58.5761 20.571 57.6996 20.5684Z" fill="url(#paint1_linear_44_9974)"/>
<path id="Vector_3" opacity="0.25" d="M40.3676 2.58952C40.2028 1.85469 39.7927 1.19788 39.2048 0.727208C38.6169 0.256537 37.8863 5.8752e-05 37.1332 1.70682e-06H23.88C23.445 -0.000440155 23.0141 0.0849145 22.6122 0.251183C22.2102 0.417451 21.8449 0.661368 21.5373 0.968969C21.2297 1.27657 20.9858 1.64182 20.8195 2.0438C20.6533 2.44579 20.5679 2.87661 20.5684 3.31163V20.5684H3.31163C2.87661 20.5679 2.44579 20.6533 2.0438 20.8195C1.64182 20.9858 1.27657 21.2297 0.968969 21.5373C0.661368 21.8449 0.417456 22.2102 0.251188 22.6122C0.0849196 23.0141 -0.000440156 23.445 1.70671e-06 23.88V37.1332C-0.000272473 37.5373 0.0737304 37.9381 0.218317 38.3154C7.97679 38.339 15.7084 34.6948 20.5012 28.5754C22.5701 25.9288 24.105 22.9127 25.7272 19.722C27.4066 16.407 29.1598 12.9778 31.578 9.9416C33.9933 6.93424 36.9807 4.43541 40.3676 2.58952Z" fill="white" fill-opacity="0.64"/>
</g>
<defs>
<linearGradient id="paint0_linear_44_9974" x1="-25.7965" y1="-4.60736" x2="68.1315" y2="-7.95982" gradientUnits="userSpaceOnUse">
<stop stop-color="#057373"/>
<stop offset="0.291285" stop-color="#1F877B"/>
<stop offset="0.497008" stop-color="#319680"/>
<stop offset="1" stop-color="#5DB98D"/>
</linearGradient>
<linearGradient id="paint1_linear_44_9974" x1="-5.22149" y1="15.9629" x2="88.6752" y2="12.6113" gradientUnits="userSpaceOnUse">
<stop stop-color="#057373"/>
<stop offset="0.291285" stop-color="#1F877B"/>
<stop offset="0.497008" stop-color="#319680"/>
<stop offset="1" stop-color="#5DB98D"/>
</linearGradient>
</defs>
</svg>
