<svg width="51" height="51" viewBox="0 0 51 51" fill="none" xmlns="http://www.w3.org/2000/svg">
<g id="Group 1948754680">
<path id="Vector 100" d="M21.6299 13.8438V21.5508H13.9219V29.3526H21.6299V37.0599H29.1945V29.3526H36.8545V21.5508H29.1945V13.8438H21.6299Z" stroke="#298F7D" stroke-width="2"/>
<path id="Vector" d="M27.7135 0C24.0739 -1.86721e-08 20.4699 0.716884 17.1074 2.10972C13.7448 3.50255 10.6896 5.54405 8.11611 8.11764C5.54263 10.6912 3.50133 13.7465 2.10876 17.109C0.716185 20.4715 -0.00036854 24.0754 1.42199e-07 27.7148V51H23.2836C30.6345 51 37.6842 48.08 42.8821 42.8825C48.0799 37.685 51 30.6356 51 23.2852V0H27.7135ZM37.2022 29.3121H29.3109V37.2057H21.6863V29.3121H13.795V21.6879H21.6863V13.7971H29.3109V21.6879H37.1881L37.2022 29.3121Z" fill="url(#paint0_linear_44_10163)"/>
<path id="Vector_2" d="M1.43876e-07 27.7148V51L22.6348 28.3988H14.8782V22.5449H22.6348V14.8825H28.276V22.5449L51 0H27.6931C20.3454 0.00744051 13.3012 2.93075 8.10842 8.12756C2.91568 13.3244 -0.000747927 20.3695 1.43876e-07 27.7148Z" fill="#55A798"/>
</g>
<defs>
<linearGradient id="paint0_linear_44_10163" x1="-9.49529" y1="7.13692" x2="81.3362" y2="6.28584" gradientUnits="userSpaceOnUse">
<stop stop-color="#057373"/>
<stop offset="0.291285" stop-color="#1F877B"/>
<stop offset="0.497008" stop-color="#319680"/>
<stop offset="1" stop-color="#5DB98D"/>
</linearGradient>
</defs>
</svg>
