<svg width="78" height="26" viewBox="0 0 78 26" fill="none" xmlns="http://www.w3.org/2000/svg">
<path d="M0 8C0 3.58172 3.58172 0 8 0H78V18C78 22.4183 74.4183 26 70 26H0V8Z" fill="url(#paint0_linear_95_28061)"/>
<path d="M12.8984 18L16.4023 8.70703H18.1226L21.6646 18H19.8555L17.437 11.3096C17.382 11.1657 17.3376 11.0282 17.3037 10.897C17.2699 10.7616 17.2381 10.624 17.2085 10.4844H17.1514C17.126 10.624 17.0942 10.7616 17.0562 10.897C17.0223 11.0282 16.98 11.1657 16.9292 11.3096L14.498 18H12.8984ZM14.6885 15.8228L15.1201 14.5405H19.335L19.7603 15.8291L14.6885 15.8228ZM29.7661 18L26.1543 13.5566L27.4175 12.6172L31.8672 18H29.7661ZM24.9927 12.5791H26.4272L29.709 8.75781H31.5498L27.0684 13.8931H24.9927V12.5791ZM24.0977 18V8.75781H25.7861V18H24.0977ZM41.1621 19.8408V18H34.1797V8.75781H35.8682V16.6924H39.8799V8.75781H41.5747V16.6924H42.7236V19.8408H41.1621ZM52.9897 18H51.2949V11.9443C51.2949 11.8089 51.297 11.6545 51.3013 11.481C51.3055 11.3075 51.3097 11.153 51.314 11.0176H51.2632C51.1997 11.1403 51.132 11.2673 51.0601 11.3984C50.9924 11.5296 50.9162 11.6693 50.8315 11.8174L47.207 18H45.3916V8.75781H47.0801V14.7944C47.0801 14.9299 47.078 15.0907 47.0737 15.2769C47.0695 15.4588 47.0653 15.6175 47.061 15.7529H47.1182C47.1689 15.6387 47.2324 15.5096 47.3086 15.3657C47.389 15.2176 47.4673 15.0737 47.5435 14.9341L51.168 8.75781H52.9897V18ZM62.8877 18H61.1929V14.4961H59.0156L58.6855 14.3564C57.8984 14.2507 57.2954 13.9502 56.8765 13.4551C56.4575 12.9557 56.248 12.34 56.248 11.6079C56.248 10.7319 56.5358 10.0379 57.1113 9.52588C57.6911 9.01383 58.512 8.75781 59.5742 8.75781H62.8877V18ZM61.1929 13.2266V10.04H59.6567C59.0135 10.04 58.5649 10.1882 58.311 10.4844C58.0614 10.7764 57.9365 11.1509 57.9365 11.6079C57.9365 12.0692 58.0614 12.4543 58.311 12.7632C58.5649 13.0721 59.0135 13.2266 59.6567 13.2266H61.1929ZM57.6636 18H55.8545L58.1777 13.7344H59.9297L57.6636 18Z" fill="white"/>
<defs>
<linearGradient id="paint0_linear_95_28061" x1="-92.4857" y1="-50.3043" x2="-95.1752" y2="87.0469" gradientUnits="userSpaceOnUse">
<stop stop-color="#E44342"/>
<stop offset="1" stop-color="#E65756" stop-opacity="0.48"/>
</linearGradient>
</defs>
</svg>
