<svg width="44" height="44" viewBox="0 0 44 44" fill="none" xmlns="http://www.w3.org/2000/svg">
<g id="&#208;&#155;&#208;&#184;&#209;&#135;&#208;&#189;&#209;&#139;&#208;&#185; &#208;&#186;&#208;&#176;&#208;&#177;&#208;&#184;&#208;&#189;&#208;&#181;&#209;&#130;">
<path id="Oval 5" fill-rule="evenodd" clip-rule="evenodd" d="M22 44C34.1503 44 44 34.1503 44 22C44 9.84974 34.1503 0 22 0C9.84974 0 0 9.84974 0 22C0 34.1503 9.84974 44 22 44Z" fill="#2E838E" fill-opacity="0.1"/>
<path id="Combined Shape" fill-rule="evenodd" clip-rule="evenodd" d="M25.3001 16.5002C25.3001 18.3227 23.8227 19.8002 22.0001 19.8002C20.1776 19.8002 18.7001 18.3227 18.7001 16.5002C18.7001 14.6777 20.1776 13.2002 22.0001 13.2002C23.8227 13.2002 25.3001 14.6777 25.3001 16.5002ZM29.3488 26.3973C29.7509 27.5678 28.6958 28.6004 27.4583 28.6004H16.542C15.3044 28.6004 14.2493 27.5678 14.6514 26.3973C15.6313 23.5447 18.5509 22.0004 22.0001 22.0004C25.4493 22.0004 28.3688 23.5447 29.3488 26.3973Z" fill="url(#paint0_linear_16_11506)"/>
</g>
<defs>
<linearGradient id="paint0_linear_16_11506" x1="12.8538" y1="6.69784" x2="33.4297" y2="6.96745" gradientUnits="userSpaceOnUse">
<stop stop-color="#1F877B"/>
<stop offset="1" stop-color="#1F877B" stop-opacity="0.66"/>
</linearGradient>
</defs>
</svg>
