<svg width="44" height="44" viewBox="0 0 44 44" fill="none" xmlns="http://www.w3.org/2000/svg">
<path fill-rule="evenodd" clip-rule="evenodd" d="M22 44C34.1503 44 44 34.1503 44 22C44 9.84974 34.1503 0 22 0C9.84974 0 0 9.84974 0 22C0 34.1503 9.84974 44 22 44Z" fill="#2E838E" fill-opacity="0.1"/>
<path fill-rule="evenodd" clip-rule="evenodd" d="M14.4559 15.5176L14.0653 13.3696L13.881 12.3558L13.8752 12.3236C13.7811 11.806 14.1787 11.3296 14.7047 11.3296C15.0999 11.3296 15.4421 11.6041 15.5278 11.9899L15.5349 12.0218L15.7584 13.0276L16.2244 15.1246H16.6205H31.0821C31.8502 15.1246 32.3818 15.8917 32.1121 16.6108L29.215 24.3365C29.0101 24.8827 28.488 25.2446 27.9046 25.2446H17.5623C16.7876 25.2446 16.1237 24.6905 15.9851 23.9283L14.7844 17.3246L14.4559 15.5176ZM18.0605 23.0446L17.0205 17.3246H29.4948L27.3498 23.0446H18.0605ZM18.1232 31.5699C19.1712 31.5699 20.0207 30.7204 20.0207 29.6724C20.0207 28.6244 19.1712 27.7749 18.1232 27.7749C17.0752 27.7749 16.2257 28.6244 16.2257 29.6724C16.2257 30.7204 17.0752 31.5699 18.1232 31.5699ZM26.9788 31.5699C28.0268 31.5699 28.8763 30.7204 28.8763 29.6724C28.8763 28.6244 28.0268 27.7749 26.9788 27.7749C25.9309 27.7749 25.0813 28.6244 25.0813 29.6724C25.0813 30.7204 25.9309 31.5699 26.9788 31.5699Z" fill="url(#paint0_linear_16_11497)"/>
<path d="M28.6223 17.3253H17.0039L18.038 23.0651H27.3622L29.5323 17.2969L28.6223 17.3253Z" fill="url(#paint1_linear_16_11497)"/>
<defs>
<linearGradient id="paint0_linear_16_11497" x1="11.7538" y1="2.78366" x2="37.1044" y2="3.09505" gradientUnits="userSpaceOnUse">
<stop stop-color="#1F877B"/>
<stop offset="1" stop-color="#1F877B" stop-opacity="0.66"/>
</linearGradient>
<linearGradient id="paint1_linear_16_11497" x1="15.5628" y1="14.8614" x2="32.885" y2="15.3719" gradientUnits="userSpaceOnUse">
<stop stop-color="#1F877B"/>
<stop offset="1" stop-color="#1F877B" stop-opacity="0.66"/>
</linearGradient>
</defs>
</svg>
