<svg width="24" height="24" viewBox="0 0 24 24" fill="none" xmlns="http://www.w3.org/2000/svg">
<g id="&#208;&#146;&#209;&#139;&#208;&#191;&#208;&#176;&#208;&#180;&#208;&#176;&#209;&#142;&#209;&#137;&#208;&#181;&#208;&#181; &#208;&#188;&#208;&#181;&#208;&#189;&#209;&#142;">
<path id="Oval 6" fill-rule="evenodd" clip-rule="evenodd" d="M6.01416 14C7.11792 14 8.0127 13.1046 8.0127 12C8.0127 10.8954 7.11792 10 6.01416 10C4.9104 10 4.01562 10.8954 4.01562 12C4.01562 13.1046 4.9104 14 6.01416 14Z" fill="#93969D"/>
<path id="Oval 6_2" fill-rule="evenodd" clip-rule="evenodd" d="M12.0083 14C13.1121 14 14.0068 13.1046 14.0068 12C14.0068 10.8954 13.1121 10 12.0083 10C10.9045 10 10.0098 10.8954 10.0098 12C10.0098 13.1046 10.9045 14 12.0083 14Z" fill="#93969D"/>
<path id="Oval 6_3" fill-rule="evenodd" clip-rule="evenodd" d="M18.0044 14C19.1082 14 20.0029 13.1046 20.0029 12C20.0029 10.8954 19.1082 10 18.0044 10C16.9006 10 16.0059 10.8954 16.0059 12C16.0059 13.1046 16.9006 14 18.0044 14Z" fill="#93969D"/>
</g>
</svg>
