<svg width="44" height="44" viewBox="0 0 44 44" fill="none" xmlns="http://www.w3.org/2000/svg">
<g id="&#208;&#159;&#208;&#190;&#208;&#184;&#209;&#129;&#208;&#186;">
<path id="Rectangle 5" fill-rule="evenodd" clip-rule="evenodd" d="M0 22C0 9.84974 9.84974 0 22 0C34.1503 0 44 9.84974 44 22C44 34.1503 34.1503 44 22 44C9.84974 44 0 34.1503 0 22Z" fill="#E0EFEC"/>
<g id="Group 5">
<path id="Shape" fill-rule="evenodd" clip-rule="evenodd" d="M21.3235 25.415C19.0647 25.415 17.2266 23.5768 17.2266 21.3181C17.2266 19.0593 19.0647 17.2212 21.3235 17.2212C23.5822 17.2212 25.4204 19.0593 25.4204 21.3181C25.4204 23.5768 23.5822 25.415 21.3235 25.415ZM29.7063 28.4131L26.0964 24.8032C26.8129 23.8236 27.2417 22.6219 27.2417 21.3181C27.2417 18.0552 24.5869 15.4004 21.324 15.4004C18.061 15.4004 15.4062 18.0552 15.4062 21.3181C15.4062 24.5811 18.061 27.2359 21.324 27.2359C22.6277 27.2359 23.8295 26.8071 24.8091 26.0906L28.4189 29.7004L29.7063 28.4131Z" fill="url(#paint0_linear_16_11443)"/>
</g>
</g>
<defs>
<linearGradient id="paint0_linear_16_11443" x1="13.7613" y1="9.36259" x2="33.5466" y2="9.63106" gradientUnits="userSpaceOnUse">
<stop stop-color="#1F877B"/>
<stop offset="1" stop-color="#1F877B" stop-opacity="0.66"/>
</linearGradient>
</defs>
</svg>
