<svg width="44" height="44" viewBox="0 0 44 44" fill="none" xmlns="http://www.w3.org/2000/svg">
<g id="&#208;&#160;&#208;&#181;&#208;&#183;&#209;&#131;&#208;&#187;&#209;&#140;&#209;&#130;&#208;&#176;&#209;&#130;&#209;&#139; &#208;&#176;&#208;&#189;&#208;&#176;&#208;&#187;&#208;&#184;&#208;&#183;&#208;&#190;&#208;&#178;">
<g id="Group 1948754409">
<path id="Union" fill-rule="evenodd" clip-rule="evenodd" d="M14.4043 10.9932C15.9813 9.93593 17.9653 9.22431 19.8169 9.05149C20.0815 9.03116 20.5698 9.00066 20.9157 9.00066C23.7543 8.97016 26.603 9.99693 28.7905 11.8776C31.0288 13.7583 32.4837 16.4218 32.9313 19.492C33.0229 20.0816 33.0229 21.9521 32.9313 22.5417C32.5244 25.2967 31.3849 27.6247 29.5027 29.4953C27.6103 31.3862 25.3008 32.5247 22.5334 32.9314C21.9433 33.0229 20.0713 33.0229 19.4812 32.9314C17.1005 32.5756 14.9944 31.6505 13.2241 30.1561C9.94808 27.3909 8.38127 22.9281 9.22572 18.7092C9.86669 15.4967 11.6573 12.8231 14.4043 10.9932Z" fill="#9DCFC8"/>
<path id="Vector" d="M23.9091 19.9091H22.0909V18.0909C22.0909 17.4945 21.5964 17 21 17C20.4036 17 19.9091 17.4945 19.9091 18.0909V19.9091H18.0909C17.4945 19.9091 17 20.4036 17 21C17 21.5964 17.4945 22.0909 18.0909 22.0909H19.9091V23.9091C19.9091 24.5055 20.4036 25 21 25C21.5964 25 22.0909 24.5055 22.0909 23.9091V22.0909H23.9091C24.5055 22.0909 25 21.5964 25 21C25 20.4036 24.5055 19.9091 23.9091 19.9091Z" fill="url(#paint0_linear_912_39629)"/>
</g>
</g>
<defs>
<linearGradient id="paint0_linear_912_39629" x1="16.0798" y1="13.6222" x2="27.1484" y2="13.7724" gradientUnits="userSpaceOnUse">
<stop stop-color="#1F877B"/>
<stop offset="1" stop-color="#1F877B" stop-opacity="0.66"/>
</linearGradient>
</defs>
</svg>
