<svg width="22" height="24" viewBox="0 0 22 24" fill="none" xmlns="http://www.w3.org/2000/svg">
<g id="Frame 1948754574">
<path id="Vector" fill-rule="evenodd" clip-rule="evenodd" d="M9.85586 0C7.96023 0 6.42351 1.61178 6.42351 3.6V4.80045C5.73113 4.80263 5.12051 4.81484 4.60735 4.88282C3.93334 4.97213 3.2854 5.17232 2.72689 5.68037C2.16839 6.18842 1.88779 6.83287 1.7082 7.52006C1.5414 8.15826 1.43242 8.95873 1.30696 9.8802L1.29726 9.95148L0.305022 17.2363C0.141241 18.4384 0.00142992 19.4645 1.12115e-05 20.2903C-0.00149902 21.1694 0.149078 22.034 0.748333 22.7587C1.3476 23.4834 2.14237 23.762 2.97233 23.8848C3.75195 24.0001 4.74025 24.0001 5.89795 24H16.1021C17.2598 24.0001 18.2481 24.0001 19.0277 23.8848C19.8576 23.762 20.6524 23.4834 21.2517 22.7587C21.851 22.034 22.0016 21.1694 22 20.2903C21.9986 19.4645 21.8588 18.4384 21.695 17.2362L20.6931 9.8802C20.5677 8.95873 20.4586 8.15826 20.2918 7.52006C20.1123 6.83287 19.8317 6.18842 19.2732 5.68037C18.7147 5.17232 18.0667 4.97213 17.3927 4.88282C16.8795 4.81484 16.2689 4.80263 15.5765 4.80045V3.6C15.5765 1.61178 14.0398 0 12.1441 0H9.85586ZM13.2882 4.8V3.6C13.2882 2.93726 12.776 2.4 12.1441 2.4H9.85586C9.22397 2.4 8.71175 2.93726 8.71175 3.6V4.8H13.2882ZM7.56763 7.2C8.1995 7.2 8.71175 7.73726 8.71175 8.4V10.8C8.71175 11.4628 8.1995 12 7.56763 12C6.93576 12 6.42351 11.4628 6.42351 10.8V8.4C6.42351 7.73726 6.93576 7.2 7.56763 7.2ZM15.5765 8.4C15.5765 7.73726 15.0642 7.2 14.4323 7.2C13.8004 7.2 13.2882 7.73726 13.2882 8.4V10.8C13.2882 11.4628 13.8004 12 14.4323 12C15.0642 12 15.5765 11.4628 15.5765 10.8V8.4Z" fill="#9DCFC8"/>
<rect id="Rectangle 13967" x="6.34375" y="7.20508" width="2.58252" height="5.88745" rx="1.29126" fill="url(#paint0_linear_912_39643)"/>
<rect id="Rectangle 13968" x="13.1016" y="7.20508" width="2.54642" height="5.88745" rx="1.27321" fill="url(#paint1_linear_912_39643)"/>
</g>
<defs>
<linearGradient id="paint0_linear_912_39643" x1="6.04669" y1="4.71926" x2="9.62034" y2="4.74053" gradientUnits="userSpaceOnUse">
<stop stop-color="#1F877B"/>
<stop offset="1" stop-color="#1F877B" stop-opacity="0.66"/>
</linearGradient>
<linearGradient id="paint1_linear_912_39643" x1="12.8087" y1="4.71926" x2="16.3324" y2="4.73994" gradientUnits="userSpaceOnUse">
<stop stop-color="#1F877B"/>
<stop offset="1" stop-color="#1F877B" stop-opacity="0.66"/>
</linearGradient>
</defs>
</svg>
