<svg width="44" height="44" viewBox="0 0 44 44" fill="none" xmlns="http://www.w3.org/2000/svg">
<g id="&#208;&#152;&#208;&#183;&#208;&#177;&#209;&#128;&#208;&#176;&#208;&#189;&#208;&#189;&#208;&#190;&#208;&#181;">
<g id="Group 1948754737">
<path id="Path" fill-rule="evenodd" clip-rule="evenodd" d="M32.1543 13.4971C30.9206 12.2628 29.247 11.5693 27.5019 11.5693C25.7568 11.5693 24.0832 12.2628 22.8495 13.4971L21.5817 14.7648L20.314 13.4971C17.7445 10.9276 13.5786 10.9276 11.0091 13.4971C8.43967 16.0665 8.43967 20.2324 11.0091 22.8019L12.2769 24.0697L21.5817 33.3745L30.8865 24.0697L32.1543 22.8019C33.3886 21.5682 34.082 19.8946 34.082 18.1495C34.082 16.4044 33.3886 14.7308 32.1543 13.4971Z" fill="#9DCFC8"/>
<g id="Group 1948754582">
<path id="Vector" d="M21.5812 23.1485C20.7023 23.1485 20.0117 22.4422 20.0117 21.579C20.0117 20.7158 20.718 20.0095 21.5812 20.0095C22.4445 20.0095 23.1507 20.7158 23.1507 21.579C23.1507 22.4422 22.4601 23.1485 21.5812 23.1485Z" fill="url(#paint0_linear_912_39654)"/>
<path id="Vector_2" d="M26.2883 23.1485C25.4093 23.1485 24.7188 22.4422 24.7188 21.579C24.7188 20.7158 25.425 20.0095 26.2883 20.0095C27.1515 20.0095 27.8578 20.7158 27.8578 21.579C27.8578 22.4422 27.1672 23.1485 26.2883 23.1485Z" fill="url(#paint1_linear_912_39654)"/>
<path id="Vector_3" d="M16.8722 23.1485C15.9933 23.1485 15.3027 22.4422 15.3027 21.579C15.3027 20.7158 16.009 20.0095 16.8722 20.0095C17.7355 20.0095 18.4417 20.7158 18.4417 21.579C18.4417 22.4422 17.7512 23.1485 16.8722 23.1485Z" fill="url(#paint2_linear_912_39654)"/>
</g>
</g>
</g>
<defs>
<linearGradient id="paint0_linear_912_39654" x1="19.6506" y1="18.6841" x2="23.9937" y2="18.7431" gradientUnits="userSpaceOnUse">
<stop stop-color="#1F877B"/>
<stop offset="1" stop-color="#1F877B" stop-opacity="0.66"/>
</linearGradient>
<linearGradient id="paint1_linear_912_39654" x1="24.3577" y1="18.6841" x2="28.7008" y2="18.7431" gradientUnits="userSpaceOnUse">
<stop stop-color="#1F877B"/>
<stop offset="1" stop-color="#1F877B" stop-opacity="0.66"/>
</linearGradient>
<linearGradient id="paint2_linear_912_39654" x1="14.9417" y1="18.6841" x2="19.2847" y2="18.7431" gradientUnits="userSpaceOnUse">
<stop stop-color="#1F877B"/>
<stop offset="1" stop-color="#1F877B" stop-opacity="0.66"/>
</linearGradient>
</defs>
</svg>
