<svg width="44" height="44" viewBox="0 0 44 44" fill="none" xmlns="http://www.w3.org/2000/svg">
<g id="&#208;&#152;&#208;&#183;&#208;&#177;&#209;&#128;&#208;&#176;&#208;&#189;&#208;&#189;&#208;&#190;&#208;&#181;">
<g id="Group 1948754738">
<path id="Vector" fill-rule="evenodd" clip-rule="evenodd" d="M33.609 19.2523C33.9631 19.2523 34.3726 19.5162 34.412 19.8674C34.5179 20.8135 34.5165 21.7689 34.4064 22.7081C34.3631 23.0737 34.0335 23.3496 33.6754 23.3205L33.5209 23.3165C32.4167 23.3165 31.3901 23.9967 30.9655 25.0098C30.5138 26.086 30.7959 27.3386 31.6653 28.126C31.9379 28.3726 31.9705 28.7891 31.74 29.0753C31.1459 29.8152 30.4664 30.4872 29.7192 31.0732C29.4314 31.2955 29.0233 31.263 28.7764 30.9944C28.0332 30.1779 26.7107 29.8707 25.6828 30.2905C24.6193 30.726 23.9317 31.7966 23.9737 32.9543C23.9859 33.3177 23.7175 33.6297 23.3552 33.6697C22.8982 33.7205 22.441 33.7456 21.9839 33.7456C21.5024 33.7456 21.0223 33.7178 20.545 33.6622C20.18 33.6201 19.9102 33.3001 19.9319 32.9324C19.9983 31.762 19.3201 30.6723 18.2419 30.2213C17.2125 29.7892 15.8752 30.0952 15.1278 30.9218C14.8797 31.1952 14.4633 31.2277 14.1771 30.9971C13.4474 30.4098 12.7813 29.7371 12.2009 28.9979C11.9757 28.7124 12.0096 28.3021 12.2769 28.0566C13.1313 27.2734 13.412 26.0324 12.9753 24.9678C12.5372 23.9017 11.4929 23.2283 10.4051 23.2561C10.0472 23.2561 9.62523 22.9945 9.58601 22.6418C9.48022 21.6958 9.48153 20.7396 9.5914 19.8011C9.63472 19.441 9.91683 19.1752 10.3129 19.1879C11.5335 19.1879 12.5997 18.5261 13.0309 17.4995C13.4826 16.4225 13.2019 15.17 12.3325 14.3827C12.0612 14.1359 12.0273 13.7201 12.2579 13.4333C12.8492 12.6954 13.5301 12.0228 14.2787 11.4355C14.5649 11.2125 14.9758 11.2456 15.2214 11.5148C15.9645 12.332 17.2925 12.6359 18.3136 12.2188C19.3784 11.7826 20.0648 10.7119 20.0241 9.55364C20.0119 9.19084 20.2805 8.87889 20.6426 8.83892C21.5785 8.73509 22.5197 8.73844 23.4528 8.84636C23.8192 8.88902 24.0877 9.2085 24.0659 9.57594C23.9995 10.7458 24.6777 11.8355 25.7532 12.2879C26.7866 12.7191 28.1241 12.4127 28.8687 11.5881C29.1156 11.3147 29.5333 11.2829 29.818 11.5114C30.5452 12.0938 31.211 12.7659 31.797 13.5099C32.0222 13.7954 31.9896 14.2063 31.721 14.4518C30.8679 15.2343 30.5872 16.476 31.0224 17.5407C31.4484 18.5802 32.4642 19.2523 33.609 19.2523ZM16.2931 21.2808C16.2931 24.4394 18.8624 27.0087 22.0211 27.0087C25.1797 27.0087 27.7491 24.4394 27.7491 21.2808C27.7491 18.1223 25.1797 15.5529 22.0211 15.5529C18.8624 15.5529 16.2931 18.1223 16.2931 21.2808Z" fill="#9DCFC8"/>
<path id="Vector_2" d="M23.47 17.7544H20.53C19.26 17.7544 18.5 18.5144 18.5 19.7844V22.7244C18.5 23.9944 19.26 24.7544 20.53 24.7544H23.47C24.74 24.7544 25.5 23.9944 25.5 22.7244V19.7844C25.5 18.5144 24.74 17.7544 23.47 17.7544ZM24.41 21.6844C24.31 21.7844 24.16 21.8544 24 21.8644H22.59L22.6 23.2544C22.59 23.4244 22.53 23.5644 22.41 23.6844C22.31 23.7844 22.16 23.8544 22 23.8544C21.67 23.8544 21.4 23.5844 21.4 23.2544V21.8544L20 21.8644C19.67 21.8644 19.4 21.5844 19.4 21.2544C19.4 20.9244 19.67 20.6544 20 20.6544L21.4 20.6644V19.2644C21.4 18.9344 21.67 18.6544 22 18.6544C22.33 18.6544 22.6 18.9344 22.6 19.2644L22.59 20.6544H24C24.33 20.6544 24.6 20.9244 24.6 21.2544C24.59 21.4244 24.52 21.5644 24.41 21.6844Z" fill="url(#paint0_linear_912_39668)"/>
</g>
</g>
<defs>
<linearGradient id="paint0_linear_912_39668" x1="17.6948" y1="14.7988" x2="27.3799" y2="14.9302" gradientUnits="userSpaceOnUse">
<stop stop-color="#1F877B"/>
<stop offset="1" stop-color="#1F877B" stop-opacity="0.66"/>
</linearGradient>
</defs>
</svg>
