<svg width="64" height="57" viewBox="0 0 64 57" fill="none" xmlns="http://www.w3.org/2000/svg">
<g id="Group 1948754676">
<circle id="Ellipse 443" cx="34.498" cy="31" r="11.7324" fill="#E5EFF0"/>
<g id="Group 1948754675">
<path id="Vector 95" d="M28 16.5V24.5H19.5V32.5H28V33V41H36V32.5H44V24.5H36V16.5H28Z" stroke="url(#paint0_linear_304_39813)" stroke-width="3"/>
<path id="Vector" d="M61.0721 10.4656C57.788 4.34259 52.2773 0.504883 46.6892 0.449219H46.5563C42.6474 0.449219 37.1181 2.20881 31.9971 10.0945C26.8791 2.20881 21.3498 0.449219 17.441 0.449219H17.3049C11.7169 0.504883 6.20619 4.34259 2.92203 10.4656C-0.362137 16.5886 -1.85887 26.2123 3.77554 34.8958C8.93681 42.8434 17.9574 49.8941 31.3539 56.4501L31.9971 56.7593L32.6403 56.4501C46.0398 49.8941 55.0604 42.8434 60.2186 34.8958C65.8623 26.2061 64.3625 16.5763 61.0721 10.4656ZM44.3328 31.355C44.3328 31.7101 44.1917 32.0507 43.9406 32.3018C43.6895 32.5529 43.3489 32.694 42.9938 32.694H36.0234V39.6705C36.0238 39.8466 35.9895 40.0211 35.9224 40.1839C35.8553 40.3467 35.7567 40.4947 35.6323 40.6194C35.5079 40.744 35.3602 40.8429 35.1976 40.9104C35.0349 40.9779 34.8605 41.0127 34.6844 41.0127H29.3252C28.9693 41.0127 28.6279 40.8713 28.3762 40.6196C28.1245 40.3679 27.9831 40.0265 27.9831 39.6705V32.6878H21.0066C20.6514 32.6878 20.3109 32.5468 20.0597 32.2956C19.8086 32.0445 19.6675 31.7039 19.6675 31.3488V25.9896C19.6675 25.6345 19.8086 25.2939 20.0597 25.0428C20.3109 24.7917 20.6514 24.6506 21.0066 24.6506H27.9831V17.6741C27.9831 17.498 28.0178 17.3236 28.0853 17.1609C28.1528 16.9983 28.2517 16.8505 28.3764 16.7261C28.5011 16.6018 28.649 16.5032 28.8119 16.4361C28.9747 16.369 29.1491 16.3346 29.3252 16.335H34.6844C35.0395 16.335 35.3801 16.4761 35.6312 16.7272C35.8824 16.9784 36.0234 17.3189 36.0234 17.6741V23.5311V24.6506H42.9876C43.1634 24.6506 43.3376 24.6852 43.5 24.7525C43.6625 24.8198 43.8101 24.9184 43.9344 25.0428C44.0588 25.1671 44.1574 25.3147 44.2247 25.4772C44.292 25.6397 44.3266 25.8138 44.3266 25.9896L44.3328 31.355Z" fill="url(#paint1_linear_304_39813)"/>
<path id="Vector_2" d="M61.0721 10.4656C57.788 4.34259 52.2773 0.504883 46.6892 0.449219H46.5563C42.6474 0.449219 37.1181 2.20881 31.9971 10.0945C26.8791 2.20881 21.3498 0.449219 17.441 0.449219H17.3049C11.7169 0.504883 6.20619 4.34259 2.92203 10.4656C-0.362137 16.5886 -1.85887 26.2123 3.77554 34.8958C8.93681 42.8434 17.9574 49.8941 31.3539 56.4501L31.9971 56.7593L32.6403 56.4501C46.0398 49.8941 55.0604 42.8434 60.2186 34.8958C65.8623 26.2061 64.3625 16.5763 61.0721 10.4656ZM44.3328 31.355C44.3328 31.7101 44.1917 32.0507 43.9406 32.3018C43.6895 32.5529 43.3489 32.694 42.9938 32.694H36.0234V39.6705C36.0238 39.8466 35.9895 40.0211 35.9224 40.1839C35.8553 40.3467 35.7567 40.4947 35.6323 40.6194C35.5079 40.744 35.3602 40.8429 35.1976 40.9104C35.0349 40.9779 34.8605 41.0127 34.6844 41.0127H29.3252C28.9693 41.0127 28.6279 40.8713 28.3762 40.6196C28.1245 40.3679 27.9831 40.0265 27.9831 39.6705V32.6878H21.0066C20.6514 32.6878 20.3109 32.5468 20.0597 32.2956C19.8086 32.0445 19.6675 31.7039 19.6675 31.3488V25.9896C19.6675 25.6345 19.8086 25.2939 20.0597 25.0428C20.3109 24.7917 20.6514 24.6506 21.0066 24.6506H27.9831V17.6741C27.9831 17.498 28.0178 17.3236 28.0853 17.1609C28.1528 16.9983 28.2517 16.8505 28.3764 16.7261C28.5011 16.6018 28.649 16.5032 28.8119 16.4361C28.9747 16.369 29.1491 16.3346 29.3252 16.335H34.6844C35.0395 16.335 35.3801 16.4761 35.6312 16.7272C35.8824 16.9784 36.0234 17.3189 36.0234 17.6741V23.5311V24.6506H42.9876C43.1634 24.6506 43.3376 24.6852 43.5 24.7525C43.6625 24.8198 43.8101 24.9184 43.9344 25.0428C44.0588 25.1671 44.1574 25.3147 44.2247 25.4772C44.292 25.6397 44.3266 25.8138 44.3266 25.9896L44.3328 31.355Z" fill="white" fill-opacity="0.15"/>
<path id="Vector_3" d="M30.9627 55.8064C27.0137 53.2984 23.7945 49.8071 20.7763 46.2198C17.4674 42.3017 14.3193 38.1795 12.0154 33.612C11.6629 32.9069 11.3258 32.1895 11.0104 31.4473C9.2384 27.3065 8.16533 22.7266 8.65393 18.2519C9.41158 11.3465 13.8152 4.82143 19.3476 0.764159C19.4218 0.705402 19.5022 0.652828 19.5795 0.597165C18.8752 0.480575 18.1627 0.421626 17.4488 0.420898H17.3127C11.7247 0.476562 6.21401 4.31427 2.92984 10.4373C-0.354319 16.5603 -1.85106 26.184 3.78335 34.8675C8.94462 42.8151 17.9652 49.8658 31.3617 56.4218L32.0049 56.731L32.3141 56.5764C31.8626 56.3537 31.4081 56.0847 30.9627 55.8064Z" fill="url(#paint2_linear_304_39813)"/>
<path id="Vector_4" opacity="0.3" d="M30.9627 55.8064C27.0137 53.2984 23.7945 49.8071 20.7763 46.2198C17.4674 42.3017 14.3193 38.1795 12.0154 33.612C11.6629 32.9069 11.3258 32.1895 11.0104 31.4473C9.2384 27.3065 8.16533 22.7266 8.65393 18.2519C9.41158 11.3465 13.8152 4.82143 19.3476 0.764159C19.4218 0.705402 19.5022 0.652828 19.5795 0.597165C18.8752 0.480575 18.1627 0.421626 17.4488 0.420898H17.3127C11.7247 0.476562 6.21401 4.31427 2.92984 10.4373C-0.354319 16.5603 -1.85106 26.184 3.78335 34.8675C8.94462 42.8151 17.9652 49.8658 31.3617 56.4218L32.0049 56.731L32.3141 56.5764C31.8626 56.3537 31.4081 56.0847 30.9627 55.8064Z" fill="white"/>
</g>
<path id="Vector 96" d="M22.4609 26L22.4609 31" stroke="url(#paint3_linear_304_39813)" stroke-width="3"/>
<path id="Vector 97" d="M41 26L41 31" stroke="url(#paint4_linear_304_39813)" stroke-width="3"/>
<path id="Vector 98" d="M34.5 19.4482L29.5 19.4482" stroke="url(#paint5_linear_304_39813)" stroke-width="3"/>
<path id="Vector 99" d="M34.5 38.4795L29.5 38.4795" stroke="url(#paint6_linear_304_39813)" stroke-width="5"/>
</g>
<defs>
<linearGradient id="paint0_linear_304_39813" x1="19.5" y1="28.5" x2="44.5" y2="28.5" gradientUnits="userSpaceOnUse">
<stop stop-color="#479F90"/>
<stop offset="1" stop-color="#55A994"/>
</linearGradient>
<linearGradient id="paint1_linear_304_39813" x1="-40.817" y1="-5.96494" x2="107.747" y2="-11.9916" gradientUnits="userSpaceOnUse">
<stop stop-color="#057373"/>
<stop offset="0.291285" stop-color="#1F877B"/>
<stop offset="0.497008" stop-color="#319680"/>
<stop offset="1" stop-color="#5DB98D"/>
</linearGradient>
<linearGradient id="paint2_linear_304_39813" x1="-3.70835" y1="-23.3546" x2="40.9956" y2="-23.0066" gradientUnits="userSpaceOnUse">
<stop stop-color="#1F877B"/>
<stop offset="1" stop-color="#1F877B" stop-opacity="0.66"/>
</linearGradient>
<linearGradient id="paint3_linear_304_39813" x1="21.2907" y1="28.449" x2="23.4813" y2="28.449" gradientUnits="userSpaceOnUse">
<stop stop-color="#479F90"/>
<stop offset="1" stop-color="#49A090"/>
</linearGradient>
<linearGradient id="paint4_linear_304_39813" x1="39.3776" y1="28.449" x2="42.0204" y2="28.449" gradientUnits="userSpaceOnUse">
<stop stop-color="#52A793"/>
<stop offset="1" stop-color="#54A893"/>
</linearGradient>
<linearGradient id="paint5_linear_304_39813" x1="32" y1="17.8079" x2="32" y2="21.0742" gradientUnits="userSpaceOnUse">
<stop stop-color="#4FA592"/>
<stop offset="1" stop-color="#50A592"/>
</linearGradient>
<linearGradient id="paint6_linear_304_39813" x1="32" y1="36.8391" x2="32" y2="40.1054" gradientUnits="userSpaceOnUse">
<stop stop-color="#50A592"/>
<stop offset="1" stop-color="#50A592"/>
</linearGradient>
</defs>
</svg>
