<svg width="42" height="42" viewBox="0 0 42 42" fill="none" xmlns="http://www.w3.org/2000/svg">
<g id="Frame 1948754565">
<rect width="42" height="42" rx="21" fill="url(#paint0_linear_95_11300)" fill-opacity="0.1"/>
<path id="Vector" d="M13.2182 17.1682C12.9207 17.4849 12.9284 17.9903 13.2354 18.2973C13.5424 18.6041 14.0326 18.5962 14.3301 18.2795L13.2182 17.1682ZM14.3134 17.151C14.0067 16.8438 13.516 16.8518 13.2182 17.1682C12.9207 17.4849 12.9284 17.9903 13.2354 18.2973L14.3134 17.151ZM13.7742 16.9254C13.3466 16.9254 13 17.2829 13 17.7239C13 18.1648 13.3466 18.5223 13.7742 18.5223V16.9254ZM24.7363 17.7239L24.7515 16.9256C24.7464 16.9255 24.7413 16.9254 24.7363 16.9254V17.7239ZM28.2252 21.4627L27.4511 21.4477C27.451 21.4577 27.451 21.4677 27.4511 21.4777L28.2252 21.4627ZM24.7363 25.2016V26C24.7413 26 24.7464 26 24.7515 25.9999L24.7363 25.2016ZM16.1951 14L13.2182 17.1682L14.3301 18.2795L17.307 15.1113L16.1951 14ZM13.2354 18.2973L16.2118 21.2776L17.2903 20.1319L14.3134 17.151L13.2354 18.2973ZM13.7742 18.5223H24.7363V16.9254H13.7742V18.5223ZM24.7211 18.5222C26.2581 18.5532 27.48 19.8626 27.4511 21.4477L28.9992 21.4777C29.044 19.0113 27.1428 16.9738 24.7515 16.9256L24.7211 18.5222ZM27.4511 21.4777C27.48 23.0628 26.2581 24.3722 24.7211 24.4032L24.7515 25.9999C27.1428 25.9517 29.044 23.9142 28.9992 21.4477L27.4511 21.4777ZM24.7363 24.4031L15 24.4031V26H24.7363V24.4031Z" fill="url(#paint1_linear_95_11300)"/>
</g>
<defs>
<linearGradient id="paint0_linear_95_11300" x1="-4.83121" y1="-17.7334" x2="53.2792" y2="-16.9449" gradientUnits="userSpaceOnUse">
<stop stop-color="#1F877B"/>
<stop offset="1" stop-color="#1F877B" stop-opacity="0.66"/>
</linearGradient>
<linearGradient id="paint1_linear_95_11300" x1="11.1595" y1="8.93331" x2="33.2937" y2="9.33377" gradientUnits="userSpaceOnUse">
<stop stop-color="#1F877B"/>
<stop offset="1" stop-color="#1F877B" stop-opacity="0.66"/>
</linearGradient>
</defs>
</svg>
