<svg width="32" height="32" viewBox="0 0 32 32" fill="none" xmlns="http://www.w3.org/2000/svg">
<mask id="mask0_95_22015" style="mask-type:luminance" maskUnits="userSpaceOnUse" x="0" y="0" width="32" height="32">
<path d="M16 32C24.8366 32 32 24.8366 32 16C32 7.16344 24.8366 0 16 0C7.16344 0 0 7.16344 0 16C0 24.8366 7.16344 32 16 32Z" fill="white"/>
</mask>
<g mask="url(#mask0_95_22015)">
<path d="M2.54688 0V19.6364H9.71051L16.0014 8.72727H32.0014V0H2.54688Z" fill="#DB4437"/>
<path d="M2.54688 0V19.6364H9.71051L16.0014 8.72727H32.0014V0H2.54688Z" fill="url(#paint0_linear_95_22015)"/>
<path d="M0 32H15.2364L22.3273 24.9091V19.6364H9.67273L0 3V32Z" fill="#0F9D58"/>
<path d="M0 32H15.2364L22.3273 24.9091V19.6364H9.67273L0 3V32Z" fill="url(#paint1_linear_95_22015)"/>
<path d="M16.0007 8.72729L22.2916 19.6364L15.2734 32H32.0007V8.72729H16.0007Z" fill="#FFCD40"/>
<path d="M16.0007 8.72729L22.2916 19.6364L15.2734 32H32.0007V8.72729H16.0007Z" fill="url(#paint2_linear_95_22015)"/>
<path d="M9.87415 19.5818L2.54688 7.34546L9.63778 19.6727L9.87415 19.5818Z" fill="#3E2723" fill-opacity="0.1"/>
<path d="M22.146 19.8728L22.0006 19.8L15.2188 31.9819L22.1824 19.8L22.146 19.8728Z" fill="#263238" fill-opacity="0.1"/>
<path d="M16 8.72726V12.5454L30.2545 8.72726H16Z" fill="url(#paint3_radial_95_22015)"/>
<path d="M2.54688 7.36353L12.9469 17.7635L9.71051 19.6363L2.54688 7.36353Z" fill="url(#paint4_radial_95_22015)"/>
<path d="M15.2383 32L19.0565 17.7637L22.2928 19.6364L15.2383 32Z" fill="url(#paint5_radial_95_22015)"/>
<path d="M15.9993 23.2728C20.0159 23.2728 23.272 20.0166 23.272 16C23.272 11.9834 20.0159 8.72729 15.9993 8.72729C11.9827 8.72729 8.72656 11.9834 8.72656 16C8.72656 20.0166 11.9827 23.2728 15.9993 23.2728Z" fill="#F1F1F1"/>
<path d="M16.0018 21.8182C19.2151 21.8182 21.82 19.2134 21.82 16.0001C21.82 12.7868 19.2151 10.1819 16.0018 10.1819C12.7885 10.1819 10.1836 12.7868 10.1836 16.0001C10.1836 19.2134 12.7885 21.8182 16.0018 21.8182Z" fill="#4285F4"/>
<path d="M16 32C24.8366 32 32 24.8366 32 16C32 7.16344 24.8366 0 16 0C7.16344 0 0 7.16344 0 16C0 24.8366 7.16344 32 16 32Z" fill="url(#paint6_radial_95_22015)"/>
<path d="M22.2909 19.6364C21.6516 20.7385 20.734 21.6533 19.6299 22.2892C18.5259 22.9251 17.2741 23.2598 16 23.2598C14.7259 23.2598 13.4741 22.9251 12.3701 22.2892C11.266 21.6533 10.3484 20.7385 9.70909 19.6364L0 3.18182L9.70909 19.8182C10.3484 20.9203 11.266 21.8351 12.3701 22.471C13.4741 23.1069 14.7259 23.4417 16 23.4417C17.2741 23.4417 18.5259 23.1069 19.6299 22.471C20.734 21.8351 21.6516 20.9203 22.2909 19.8182V19.6364Z" fill="white" fill-opacity="0.1"/>
<path d="M16.1818 8.72726H16.0909C18.0198 8.72726 19.8696 9.4935 21.2335 10.8574C22.5974 12.2213 23.3636 14.0711 23.3636 16C23.3636 17.9288 22.5974 19.7787 21.2335 21.1426C19.8696 22.5065 18.0198 23.2727 16.0909 23.2727H16.1818C20.1818 23.2727 23.4545 20 23.4545 16C23.4545 12 20.1818 8.72726 16.1818 8.72726ZM16 31.8182C20.2278 31.8182 24.2837 30.145 27.2817 27.1641C30.2797 24.1831 31.976 20.1368 32 15.9091V16C32 20.2435 30.3143 24.3131 27.3137 27.3137C24.3131 30.3143 20.2435 32 16 32C11.7565 32 7.68687 30.3143 4.68629 27.3137C1.68571 24.3131 0 20.2435 0 16V15.9091C0.0240214 20.1368 1.72033 24.1831 4.71831 27.1641C7.71629 30.145 11.7722 31.8182 16 31.8182Z" fill="#3E2723" fill-opacity="0.1"/>
<path d="M22.3636 19.8727C22.8714 19.0015 23.189 18.0326 23.2955 17.0298C23.4021 16.027 23.2952 15.0131 22.9818 14.0545C23.2645 14.9814 23.3491 15.9573 23.2301 16.9189C23.111 17.8806 22.7911 18.8064 22.2909 19.6364L15.4545 32L22.4 19.9091L22.3636 19.8727ZM16 0.181818C20.2278 0.18175 24.2837 1.85497 27.2817 4.83592C30.2797 7.81687 31.976 11.8632 32 16.0909V16C32 11.7565 30.3143 7.68687 27.3137 4.68629C24.3131 1.68571 20.2435 0 16 0C11.7565 0 7.68687 1.68571 4.68629 4.68629C1.68571 7.68687 0 11.7565 0 16V16.0909C0.0240214 11.8632 1.72033 7.81687 4.71831 4.83592C7.71629 1.85497 11.7722 0.18175 16 0.181818Z" fill="white" fill-opacity="0.2"/>
<path d="M15.9993 8.54541C11.9993 8.54541 8.72656 11.8181 8.72656 15.8181V16C8.72656 12 11.9993 8.72723 15.9993 8.72723H31.9993V8.54541H15.9993Z" fill="#3E2723" fill-opacity="0.2"/>
</g>
<defs>
<linearGradient id="paint0_linear_95_22015" x1="3.87415" y1="12.3636" x2="13.4196" y2="6.8" gradientUnits="userSpaceOnUse">
<stop stop-color="#A52714" stop-opacity="0.6"/>
<stop offset="0.7" stop-color="#A52714" stop-opacity="0"/>
</linearGradient>
<linearGradient id="paint1_linear_95_22015" x1="18.7091" y1="28.6364" x2="8.09091" y2="22.4182" gradientUnits="userSpaceOnUse">
<stop stop-color="#055524" stop-opacity="0.4"/>
<stop offset="0.3" stop-color="#055524" stop-opacity="0"/>
</linearGradient>
<linearGradient id="paint2_linear_95_22015" x1="20.8916" y1="7.78184" x2="23.5643" y2="19.4728" gradientUnits="userSpaceOnUse">
<stop stop-color="#EA6100" stop-opacity="0.3"/>
<stop offset="0.7" stop-color="#EA6100" stop-opacity="0"/>
</linearGradient>
<radialGradient id="paint3_radial_95_22015" cx="0" cy="0" r="1" gradientUnits="userSpaceOnUse" gradientTransform="translate(15.3091 8.72726) scale(15.2909 15.2909)">
<stop stop-color="#3E2723" stop-opacity="0.2"/>
<stop offset="1" stop-color="#3E2723" stop-opacity="0"/>
</radialGradient>
<radialGradient id="paint4_radial_95_22015" cx="0" cy="0" r="1" gradientUnits="userSpaceOnUse" gradientTransform="translate(2.52869 7.36353) scale(14.1818 14.1818)">
<stop stop-color="#3E2723" stop-opacity="0.2"/>
<stop offset="1" stop-color="#3E2723" stop-opacity="0"/>
</radialGradient>
<radialGradient id="paint5_radial_95_22015" cx="0" cy="0" r="1" gradientUnits="userSpaceOnUse" gradientTransform="translate(15.9656 16.0182) scale(15.9818 15.9818)">
<stop stop-color="#263238" stop-opacity="0.2"/>
<stop offset="1" stop-color="#263238" stop-opacity="0"/>
</radialGradient>
<radialGradient id="paint6_radial_95_22015" cx="0" cy="0" r="1" gradientUnits="userSpaceOnUse" gradientTransform="translate(4.78182 4.36364) scale(32.1455)">
<stop stop-color="white" stop-opacity="0.1"/>
<stop offset="1" stop-color="white" stop-opacity="0"/>
</radialGradient>
</defs>
</svg>
