<svg width="28" height="28" viewBox="0 0 28 28" fill="none" xmlns="http://www.w3.org/2000/svg">
<g id="icons / eye">
<g id="Vector">
<path d="M23.7516 9.19813C26.3719 11.5756 28 14 28 14C28 14 21.732 23.3333 14 23.3333C12.7192 23.3333 11.4785 23.0772 10.2999 22.6498L13.1744 19.7754C13.4441 19.8136 13.7197 19.8333 14 19.8333C17.2217 19.8333 19.8333 17.2217 19.8333 14C19.8333 13.7197 19.8136 13.4441 19.7754 13.1744L23.7516 9.19813Z" fill="#959A9D"/>
<path d="M8.22464 14.8256C8.18643 14.5559 8.16667 14.2802 8.16667 14C8.16667 10.7783 10.7783 8.16666 14 8.16666C14.2803 8.16666 14.5559 8.18642 14.8256 8.22463L17.7001 5.35014C16.5215 4.92277 15.2808 4.66666 14 4.66666C6.26801 4.66666 0 14 0 14C0 14 1.62812 16.4243 4.24839 18.8018L8.22464 14.8256Z" fill="#959A9D"/>
<path fill-rule="evenodd" clip-rule="evenodd" d="M24.7416 3.25837C24.286 2.80275 23.5473 2.80275 23.0917 3.25837L3.84171 22.5084C3.3861 22.964 3.3861 23.7027 3.84171 24.1583C4.29732 24.6139 5.03601 24.6139 5.49162 24.1583L24.7416 4.90828C25.1972 4.45267 25.1972 3.71398 24.7416 3.25837Z" fill="#959A9D"/>
</g>
</g>
</svg>
