<svg width="28" height="20" viewBox="0 0 28 20" fill="none" xmlns="http://www.w3.org/2000/svg">
<path d="M16.3333 9.99935C16.3333 11.288 15.2887 12.3327 14 12.3327C12.7113 12.3327 11.6667 11.288 11.6667 9.99935C11.6667 8.71068 12.7113 7.66602 14 7.66602C15.2887 7.66602 16.3333 8.71068 16.3333 9.99935Z" fill="#959A9D"/>
<path fill-rule="evenodd" clip-rule="evenodd" d="M14 19.3327C21.732 19.3327 28 9.99935 28 9.99935C28 9.99935 21.732 0.666016 14 0.666016C6.26801 0.666016 0 9.99935 0 9.99935C0 9.99935 6.26801 19.3327 14 19.3327ZM14 15.8327C17.2217 15.8327 19.8333 13.221 19.8333 9.99935C19.8333 6.77769 17.2217 4.16602 14 4.16602C10.7783 4.16602 8.16667 6.77769 8.16667 9.99935C8.16667 13.221 10.7783 15.8327 14 15.8327Z" fill="#959A9D"/>
</svg>
