<svg width="60" height="60" viewBox="0 0 60 60" fill="none" xmlns="http://www.w3.org/2000/svg">
<rect width="60" height="60" rx="5" fill="white"/>
<rect width="60" height="60" rx="5" fill="url(#paint0_linear_971_18129)"/>
<path d="M14.56 41V21.56H19.336C20.504 21.56 21.432 21.776 22.12 22.208C22.808 22.624 23.304 23.232 23.608 24.032C23.928 24.816 24.088 25.76 24.088 26.864C24.088 27.856 23.912 28.736 23.56 29.504C23.224 30.256 22.704 30.848 22 31.28C21.312 31.696 20.432 31.904 19.36 31.904H17.008V41H14.56ZM17.008 30.152H18.592C19.376 30.152 19.992 30.056 20.44 29.864C20.904 29.656 21.24 29.32 21.448 28.856C21.656 28.376 21.76 27.72 21.76 26.888C21.76 25.944 21.68 25.216 21.52 24.704C21.376 24.176 21.08 23.816 20.632 23.624C20.184 23.416 19.512 23.312 18.616 23.312H17.008V30.152ZM26.1147 41V21.56H30.3627C31.7707 21.56 32.8827 21.784 33.6987 22.232C34.5147 22.68 35.0907 23.344 35.4267 24.224C35.7787 25.104 35.9547 26.168 35.9547 27.416V34.76C35.9547 36.072 35.7787 37.2 35.4267 38.144C35.0907 39.072 34.5307 39.784 33.7467 40.28C32.9627 40.76 31.8987 41 30.5547 41H26.1147ZM28.5627 39.224H30.3867C31.3787 39.224 32.0907 39.032 32.5227 38.648C32.9707 38.248 33.2427 37.68 33.3387 36.944C33.4507 36.208 33.5067 35.336 33.5067 34.328V27.704C33.5067 26.712 33.4347 25.896 33.2907 25.256C33.1467 24.616 32.8507 24.144 32.4027 23.84C31.9547 23.536 31.2587 23.384 30.3147 23.384H28.5627V39.224ZM38.7241 41V21.56H46.0921V23.336H41.1721V30.056H45.0601V31.808H41.1721V41H38.7241Z" fill="white"/>
<defs>
<linearGradient id="paint0_linear_971_18129" x1="-62.4" y1="-78" x2="154.805" y2="-18.7095" gradientUnits="userSpaceOnUse">
<stop stop-color="#E44342"/>
<stop offset="1" stop-color="#E44342" stop-opacity="0.37"/>
</linearGradient>
</defs>
</svg>
