<svg width="132" height="132" viewBox="0 0 132 132" fill="none" xmlns="http://www.w3.org/2000/svg">
<g id="Group 1948754609">
<g id="Group 1948754608">
<circle id="Ellipse 433" opacity="0.6" cx="66" cy="66" r="65" stroke="url(#paint0_linear_95_10369)" stroke-width="2"/>
<circle id="Ellipse 434" opacity="0.5" cx="66" cy="66" r="52" fill="url(#paint1_linear_95_10369)"/>
<circle id="Ellipse 435" cx="66" cy="66" r="36" fill="url(#paint2_linear_95_10369)"/>
</g>
<path id="Vector" d="M81.2867 79.4055L75.2421 73.5512C74.9206 73.2759 74.36 73.2308 74.0023 73.4497L71.4255 75.0272C71.0646 75.2454 70.4332 75.3497 70.0192 75.2567C70.0192 75.2567 67.3642 74.6472 63.624 68.5304C59.8887 62.4078 60.5532 59.7547 60.5532 59.7547C60.6554 59.3458 61.0369 58.8273 61.3978 58.6091L63.5918 57.2688C63.9535 57.0473 64.183 56.5268 64.0997 56.1112L61.9772 47.8559C61.8972 47.4411 61.5341 47.2806 61.1724 47.5021L55.1904 51.1475C54.8295 51.3657 54.4095 51.8714 54.2558 52.2645C54.2558 52.2645 51.6193 59.0694 59.0873 71.2965C66.5603 83.5318 73.8156 84.2838 73.8156 84.2838C74.2382 84.3268 74.8757 84.1824 75.2367 83.9642L81.2178 80.3082C81.5755 80.0892 81.6082 79.6808 81.2867 79.4055Z" fill="#E5EFF0"/>
</g>
<defs>
<linearGradient id="paint0_linear_95_10369" x1="-15.1838" y1="-55.7336" x2="167.449" y2="-53.2554" gradientUnits="userSpaceOnUse">
<stop stop-color="#1F877B"/>
<stop offset="1" stop-color="#1F877B" stop-opacity="0.66"/>
</linearGradient>
<linearGradient id="paint1_linear_95_10369" x1="2.037" y1="-29.9113" x2="145.93" y2="-27.9588" gradientUnits="userSpaceOnUse">
<stop stop-color="#1F877B"/>
<stop offset="1" stop-color="#1F877B" stop-opacity="0.66"/>
</linearGradient>
<linearGradient id="paint2_linear_95_10369" x1="21.7179" y1="-0.400127" x2="121.336" y2="0.95162" gradientUnits="userSpaceOnUse">
<stop stop-color="#1F877B"/>
<stop offset="1" stop-color="#1F877B" stop-opacity="0.66"/>
</linearGradient>
</defs>
</svg>
