<svg width="44" height="44" viewBox="0 0 44 44" fill="none" xmlns="http://www.w3.org/2000/svg">
<g id="Telegram">
<rect width="44" height="44" rx="22" fill="#419FD9"/>
<path id="Exclude" fill-rule="evenodd" clip-rule="evenodd" d="M25.5567 29.9234C26.6751 30.4126 27.0944 29.3875 27.0944 29.3875L30.0534 14.5229C30.0301 13.521 28.6788 14.1268 28.6788 14.1268L12.1133 20.6272C12.1133 20.6272 11.3212 20.9067 11.3911 21.396C11.461 21.8853 12.09 22.1183 12.09 22.1183L16.2605 23.5162C16.2605 23.5162 17.5187 27.6401 17.7749 28.4322C18.0079 29.2011 18.2176 29.2244 18.2176 29.2244C18.4506 29.3176 18.6603 29.1545 18.6603 29.1545L21.363 26.7081L25.5567 29.9234ZM26.279 17.1556C26.279 17.1556 26.8615 16.8061 26.8382 17.1556C26.8382 17.1556 26.9314 17.2022 26.6285 17.5284C26.3489 17.808 19.7553 23.7259 18.87 24.518C18.8001 24.5646 18.7535 24.6345 18.7535 24.7277L18.4972 26.9178C18.4506 27.1508 18.1477 27.1741 18.0778 26.9644L16.9828 23.3764C16.9362 23.2366 16.9828 23.0735 17.1226 22.9803L26.279 17.1556Z" fill="white"/>
</g>
</svg>
