<svg width="44" height="44" viewBox="0 0 44 44" fill="none" xmlns="http://www.w3.org/2000/svg">
<g id="WhatsApp Line">
<rect width="44" height="44" rx="22" fill="#7C529E"/>
<g id="Union">
<path d="M22.2344 13.9762C21.8333 13.9762 21.8333 14.6012 22.2344 14.6064C25.3458 14.6303 27.9083 16.7991 27.9365 20.7772C27.9365 21.197 28.551 21.1918 28.5458 20.772C28.5125 16.4855 25.7135 14.0001 22.2344 13.9762Z" fill="white"/>
<path d="M26.3238 20.1178C26.3144 20.5324 26.928 20.5522 26.9332 20.1324C26.9842 17.7688 25.5269 15.822 22.7884 15.6168C22.3874 15.5876 22.3457 16.2178 22.7457 16.247C25.1207 16.4272 26.3717 18.048 26.3238 20.1178Z" fill="white"/>
<path d="M24.4149 22.9866C24.6315 22.6939 25.1555 22.5084 25.6701 22.8064C26.3638 23.2116 27.2472 23.8418 27.8326 24.4126C28.1628 24.6907 28.2378 25.1157 28.0117 25.5647V25.572C27.5024 26.5001 26.5482 27.5251 25.567 27.198L25.5576 27.1834C24.5617 26.8949 22.2159 25.6449 20.7336 24.4251C18.1264 22.2932 16.9982 19.5911 16.3811 18.1134C16.2517 17.8034 16.1447 17.5472 16.0513 17.3616C15.7357 16.3459 16.7222 15.3595 17.6232 14.8324H17.6326C18.0659 14.598 18.4826 14.6761 18.7597 15.023C18.8245 15.1137 18.9047 15.2112 19.0003 15.3273C19.2932 15.6832 19.7305 16.2146 20.3118 17.2647C20.6003 17.797 20.4211 18.3386 20.1378 18.5636L19.5711 19.0324C19.2836 19.2709 19.3222 19.7157 19.3222 19.7157C19.3222 19.7157 20.1618 23.0011 23.3013 23.8314C23.3013 23.8314 23.7315 23.8709 23.9617 23.573L24.4149 22.9866Z" fill="white"/>
<path d="M23.2208 17.9418C24.2219 18.0001 24.7073 18.523 24.7594 19.597C24.7781 20.0168 25.3875 19.9876 25.3688 19.5678C25.3021 18.1657 24.5708 17.3845 23.2542 17.3115C22.8531 17.2876 22.8156 17.9178 23.2208 17.9418Z" fill="white"/>
<path fill-rule="evenodd" clip-rule="evenodd" d="M31.27 11.9376C33.2617 13.7303 34.3658 17.6938 33.62 23.972C32.9673 29.511 29.2331 30.4921 27.9797 30.8214C27.8567 30.8537 27.7577 30.8798 27.6877 30.9032C27.3492 31.0157 24.37 31.7865 20.4908 31.4501C20.3556 31.6116 20.2271 31.7654 20.1048 31.9116C18.1303 34.2738 17.7901 34.6808 17.0877 34.4532C16.4356 34.248 16.4742 33.2272 16.4742 33.2272L16.4794 30.7074H16.4742C10.8065 29.0574 10.8856 22.9751 10.9523 19.7282C11.019 16.4824 11.6273 13.8605 13.3544 12.074C17.2002 8.42196 28.0565 8.87509 31.271 11.9365L31.27 11.9376ZM17.6544 33.5334C18.4179 32.7386 20.8731 29.6772 20.8731 29.6772C24.1627 29.897 26.7825 29.223 27.0648 29.1293C27.1306 29.1074 27.2254 29.0845 27.3435 29.0559C28.4111 28.7982 31.3776 28.0819 31.9262 23.5105C31.9257 23.4878 31.9337 23.4073 31.9466 23.2776C32.0771 21.9629 32.7091 15.5964 30.0106 13.2043C27.5856 10.9251 18.0679 10.2178 14.694 13.3813C13.2315 14.8761 12.7356 17.0959 12.6835 19.8063C12.6817 19.8994 12.6797 19.9955 12.6776 20.0942C12.618 22.8672 12.5133 27.7422 17.1533 29.072C17.1533 29.072 17.1346 32.9188 17.1346 33.2553C17.1304 33.7678 17.4044 33.7918 17.6544 33.5334Z" fill="white"/>
</g>
</g>
</svg>
