<svg width="44" height="44" viewBox="0 0 44 44" fill="none" xmlns="http://www.w3.org/2000/svg">
<g id="Vkontakte (VK)">
<rect width="44" height="44" rx="22" fill="#5181B8"/>
<path id="Vector" fill-rule="evenodd" clip-rule="evenodd" d="M32.1759 17.0239C32.3243 16.5294 32.1759 16.166 31.4701 16.166H29.1362C28.5427 16.166 28.2693 16.4799 28.121 16.8262C28.121 16.8262 26.934 19.719 25.2526 21.5981C24.7087 22.1421 24.4614 22.3149 24.1647 22.3149C24.0163 22.3149 23.8016 22.1421 23.8016 21.6476V17.0239C23.8016 16.4304 23.6294 16.166 23.1348 16.166H19.4673C19.0965 16.166 18.8735 16.4414 18.8735 16.7025C18.8735 17.2651 19.714 17.3948 19.8007 18.9772V22.4141C19.8007 23.1676 19.6646 23.3043 19.3679 23.3043C18.5767 23.3043 16.6523 20.3983 15.5107 17.0734C15.287 16.4271 15.0626 16.166 14.4661 16.166H12.1322C11.4654 16.166 11.332 16.4799 11.332 16.8262C11.332 17.4443 12.1234 20.5104 15.0162 24.5653C16.945 27.3343 19.662 28.8356 22.1346 28.8356C23.6182 28.8356 23.8016 28.5022 23.8016 27.9279V25.8349C23.8016 25.1681 23.9421 25.0351 24.4118 25.0351C24.7582 25.0351 25.3515 25.2081 26.7363 26.5433C28.3187 28.1255 28.5794 28.8356 29.4696 28.8356H31.8035C32.4703 28.8356 32.8037 28.5022 32.6113 27.8442C32.4009 27.1884 31.6454 26.2372 30.6429 25.1093C30.0989 24.4663 29.2829 23.774 29.0358 23.4279C28.6896 22.9828 28.7884 22.7851 29.0358 22.3896C29.0358 22.3896 31.8792 18.3839 32.1759 17.0239Z" fill="white"/>
</g>
</svg>
