<svg width="44" height="44" viewBox="0 0 44 44" fill="none" xmlns="http://www.w3.org/2000/svg">
<g id="WhatsApp Line">
<rect width="44" height="44" rx="22" fill="#0DC143"/>
<path id="Vector" d="M30.7364 13.2343C28.6459 11.0823 25.756 9.91406 22.8047 9.91406C16.5331 9.91406 11.4912 15.0174 11.5527 21.2276C11.5527 23.1951 12.106 25.1012 13.0283 26.8228L11.4297 32.6641L17.3939 31.1269C19.054 32.0492 20.8986 32.4796 22.7432 32.4796C28.9533 32.4796 33.9952 27.3762 33.9952 21.1661C33.9952 18.1532 32.827 15.3249 30.7364 13.2343ZM22.8047 30.5735C21.1446 30.5735 19.4844 30.1431 18.0702 29.2823L17.7013 29.0978L14.1351 30.0201L15.0574 26.5154L14.8114 26.1465C12.106 21.781 13.3973 16.0012 17.8243 13.2958C22.2513 10.5904 27.9696 11.8816 30.675 16.3087C33.3804 20.7357 32.0891 26.4539 27.6621 29.1593C26.2479 30.0816 24.5263 30.5735 22.8047 30.5735ZM28.2155 23.7485L27.5391 23.4411C27.5391 23.4411 26.5554 23.0107 25.9405 22.7032C25.879 22.7032 25.8175 22.6418 25.756 22.6418C25.5716 22.6418 25.4486 22.7032 25.3256 22.7647C25.3256 22.7647 25.2641 22.8262 24.4033 23.81C24.3419 23.933 24.2189 23.9945 24.0959 23.9945H24.0344C23.9729 23.9945 23.85 23.933 23.7885 23.8715L23.481 23.7485C22.8047 23.4411 22.1898 23.0722 21.6979 22.5803C21.575 22.4573 21.3905 22.3343 21.2675 22.2114C20.8371 21.781 20.4067 21.2891 20.0993 20.7357L20.0378 20.6127C19.9763 20.5512 19.9763 20.4897 19.9148 20.3668C19.9148 20.2438 19.9148 20.1208 19.9763 20.0593C19.9763 20.0593 20.2223 19.7519 20.4067 19.5674C20.5297 19.4445 20.5912 19.26 20.7141 19.137C20.8371 18.9526 20.8986 18.7066 20.8371 18.5222C20.7756 18.2147 20.0378 16.5546 19.8533 16.1857C19.7304 16.0012 19.6074 15.9397 19.4229 15.8783H19.2385C19.1155 15.8783 18.931 15.8783 18.7466 15.8783C18.6236 15.8783 18.5006 15.9397 18.3777 15.9397L18.3162 16.0012C18.1932 16.0627 18.0702 16.1857 17.9473 16.2472C17.8243 16.3701 17.7628 16.4931 17.6398 16.6161C17.2094 17.1695 16.9635 17.8458 16.9635 18.5222C16.9635 19.0141 17.0864 19.506 17.2709 19.9364L17.3324 20.1208C17.8858 21.2891 18.6236 22.3343 19.6074 23.2566L19.8533 23.5026C20.0378 23.687 20.2223 23.81 20.3452 23.9945C21.6364 25.1012 23.1121 25.9005 24.7723 26.331C24.9567 26.3924 25.2027 26.3924 25.3871 26.4539C25.5716 26.4539 25.8175 26.4539 26.002 26.4539C26.3094 26.4539 26.6783 26.331 26.9243 26.208C27.1087 26.085 27.2317 26.085 27.3547 25.962L27.4777 25.8391C27.6006 25.7161 27.7236 25.6546 27.8466 25.5316C27.9696 25.4087 28.0925 25.2857 28.154 25.1627C28.277 24.9168 28.3385 24.6093 28.4 24.3019C28.4 24.1789 28.4 23.9945 28.4 23.8715C28.4 23.8715 28.3385 23.81 28.2155 23.7485Z" fill="white"/>
</g>
</svg>
