<svg width="99" height="35" viewBox="0 0 99 35" fill="none" xmlns="http://www.w3.org/2000/svg">
<path d="M0 8C0 3.58172 3.58172 0 8 0H99V27C99 31.4183 95.4183 35 91 35H0V8Z" fill="white"/>
<path d="M0 8C0 3.58172 3.58172 0 8 0H99V27C99 31.4183 95.4183 35 91 35H0V8Z" fill="url(#paint0_linear_160_5676)"/>
<path d="M18.8438 17.6719V16.9531C18.8438 15.1771 19.2969 13.8073 20.2031 12.8438C21.1094 11.8802 22.2604 11.3984 23.6562 11.3984C25.0312 11.3984 26.112 11.7682 26.8984 12.5078C27.6849 13.2474 28.0781 14.1641 28.0781 15.2578V15.3828H26.2812V15.2422C26.2812 14.5286 26.0625 13.9531 25.625 13.5156C25.1927 13.0729 24.5365 12.8516 23.6562 12.8516C22.776 12.8516 22.0573 13.1771 21.5 13.8281C20.9427 14.474 20.6641 15.4844 20.6641 16.8594V17.7656C20.6641 19.0417 20.9401 20.0286 21.4922 20.7266C22.0443 21.4245 22.7682 21.7734 23.6641 21.7734C24.4974 21.7734 25.125 21.5495 25.5469 21.1016C25.974 20.6484 26.2188 20.0729 26.2812 19.375V19.2422H28.0781L28.0703 19.3828C27.987 20.4609 27.5729 21.3724 26.8281 22.1172C26.0885 22.8568 25.0312 23.2266 23.6562 23.2266C22.2552 23.2266 21.1016 22.7448 20.1953 21.7812C19.2943 20.8125 18.8438 19.4427 18.8438 17.6719ZM36.5081 23L31.8753 17.3984L33.2816 16.4922L38.7113 23H36.5081ZM30.5394 16.4219H32.2503L36.3597 11.625H38.3363L32.9534 17.8438H30.5394V16.4219ZM29.6097 23V11.625H31.3909V23H29.6097ZM48.4694 23H46.6803V15.1406C46.6803 14.9792 46.6803 14.7969 46.6803 14.5938C46.6855 14.3854 46.6907 14.1979 46.6959 14.0312H46.6413C46.5683 14.1771 46.4876 14.3307 46.3991 14.4922C46.3105 14.6484 46.2168 14.8125 46.1178 14.9844L41.3756 23H39.4459V11.625H41.2272V19.4844C41.2272 19.651 41.2246 19.8359 41.2194 20.0391C41.2194 20.2422 41.2168 20.4271 41.2116 20.5938H41.2741C41.3366 20.4583 41.4147 20.3073 41.5084 20.1406C41.6022 19.974 41.6959 19.8047 41.7897 19.6328L46.5397 11.625H48.4694V23ZM59.1728 25.2656V23H51.1416V25.2656H49.5088V21.5781H60.8056V25.2656H59.1728ZM51.7744 11.625H59.3994V23H57.6181V13.0469H53.2978L53.0166 17.7891C52.9541 18.8828 52.8551 19.7474 52.7197 20.3828C52.5843 21.013 52.4254 21.5234 52.2431 21.9141H50.4541C50.7093 21.4818 50.915 20.9479 51.0713 20.3125C51.2327 19.6771 51.3447 18.8281 51.4072 17.7656L51.7744 11.625ZM68.8606 23L64.2278 17.3984L65.6341 16.4922L71.0638 23H68.8606ZM62.8919 16.4219H64.6028L68.7122 11.625H70.6888L65.3059 17.8438H62.8919V16.4219ZM61.9622 23V11.625H63.7434V23H61.9622ZM70.4547 23L74.7359 11.5547H76.4781L80.7906 23H78.9078L75.8688 14.5703C75.8063 14.3932 75.7516 14.224 75.7047 14.0625C75.663 13.901 75.624 13.737 75.5875 13.5703H75.5172C75.4807 13.737 75.4391 13.901 75.3922 14.0625C75.3505 14.224 75.2984 14.3932 75.2359 14.5703L72.1813 23H70.4547ZM72.4859 20.1797L72.9703 18.7812H78.1969L78.6734 20.1797H72.4859Z" fill="#E5EFF0"/>
<defs>
<linearGradient id="paint0_linear_160_5676" x1="-32.175" y1="-12.069" x2="163.773" y2="115.39" gradientUnits="userSpaceOnUse">
<stop stop-color="#E44342"/>
<stop offset="1" stop-color="#E44342" stop-opacity="0.37"/>
</linearGradient>
</defs>
</svg>
