<svg width="16" height="21" viewBox="0 0 16 21" fill="none" xmlns="http://www.w3.org/2000/svg">
<g id="&#208;&#176;&#208;&#180;&#209;&#128;&#208;&#181;&#209;&#129;">
<path id="Vector" opacity="0.2" d="M8 0.288087C6.97456 0.262308 5.95414 0.440833 4.99704 0.813461C4.03995 1.18609 3.16493 1.74552 2.422 2.45978C1.67907 3.17404 1.08278 4.02913 0.667201 4.97621C0.251625 5.92328 0.0249059 6.94377 0 7.97936C0 10.8393 1.28 12.3259 2.912 14.4426C4.352 16.2685 6 17.9166 7.424 19.4516C7.49607 19.5342 7.58471 19.6003 7.68402 19.6455C7.78333 19.6908 7.89104 19.7142 8 19.7142C8.10896 19.7142 8.21667 19.6908 8.31598 19.6455C8.41529 19.6003 8.50393 19.5342 8.576 19.4516C10.016 17.8358 11.776 16.22 13.072 14.4426C14.576 12.3905 16 10.8393 16 7.97936C15.8603 5.91933 14.9614 3.98691 13.4805 2.56317C11.9996 1.13943 10.0443 0.327712 8 0.288087ZM8 11.5988C7.3671 11.5988 6.74841 11.4092 6.22218 11.0542C5.69594 10.6991 5.28579 10.1943 5.04359 9.60384C4.80138 9.01334 4.73801 8.36357 4.86149 7.73669C4.98496 7.10982 5.28973 6.534 5.73726 6.08205C6.18479 5.6301 6.75497 5.32231 7.37571 5.19762C7.99645 5.07293 8.63986 5.13692 9.22459 5.38152C9.80931 5.62611 10.3091 6.04032 10.6607 6.57176C11.0123 7.1032 11.2 7.728 11.2 8.36715C11.2 9.22423 10.8629 10.0462 10.2627 10.6523C9.66263 11.2583 8.84869 11.5988 8 11.5988Z" fill="url(#paint0_linear_39_5256)"/>
</g>
<defs>
<linearGradient id="paint0_linear_39_5256" x1="-1.84046" y1="-7.91756" x2="20.2982" y2="-7.67017" gradientUnits="userSpaceOnUse">
<stop stop-color="#1F877B"/>
<stop offset="1" stop-color="#1F877B" stop-opacity="0.66"/>
</linearGradient>
</defs>
</svg>
