<svg width="18" height="14" viewBox="0 0 18 14" fill="none" xmlns="http://www.w3.org/2000/svg">
<path id="&#208;&#191;&#208;&#190;&#209;&#135;&#209;&#130;&#208;&#176;" opacity="0.3" d="M0.852245 0.0964792C0.993673 0.0356552 1.14429 0 1.30408 0H16.6959C16.8557 0 17.0063 0.0377526 17.1478 0.0964792L10.2527 7.51491C9.55102 8.26996 8.45082 8.26996 7.74918 7.51491L0.852245 0.0964792ZM17.8071 13.2785C17.9265 13.0541 18 12.7919 18 12.5109V1.48704C18 1.28779 17.9651 1.09693 17.9008 0.922846L11.4465 7.86517L17.8071 13.2785ZM10.8643 8.4818C10.328 9.00614 9.6649 9.27251 9 9.27251C8.3351 9.27251 7.6702 9.00614 7.13571 8.4818L0.793469 13.8804C0.951429 13.956 1.12224 14 1.30408 14H16.6959C16.8778 14 17.0486 13.9581 17.2065 13.8804L10.8643 8.4818ZM0.0991837 0.922846C0.0367347 1.09693 0 1.28779 0 1.48704V12.5088C0 12.7919 0.0734694 13.052 0.192857 13.2764L6.55347 7.86307L0.0991837 0.922846Z" fill="url(#paint0_linear_39_5273)"/>
<defs>
<linearGradient id="paint0_linear_39_5273" x1="-2.07052" y1="-5.91114" x2="22.831" y2="-5.4767" gradientUnits="userSpaceOnUse">
<stop stop-color="#1F877B"/>
<stop offset="1" stop-color="#1F877B" stop-opacity="0.66"/>
</linearGradient>
</defs>
</svg>
