<svg width="18" height="19" viewBox="0 0 18 19" fill="none" xmlns="http://www.w3.org/2000/svg">
<path id="&#209;&#130;&#208;&#181;&#208;&#187;&#208;&#181;&#209;&#132;&#208;&#190;&#208;&#189;" opacity="0.3" d="M14.0014 18.1583C14.4018 18.1583 18 15.4987 18 15.1589C18 14.8191 13.9739 12.2826 13.6249 12.2826C13.2759 12.2826 12.1078 13.684 11.7918 13.8402C11.4759 13.9963 9.50694 13.9393 7.31204 11.7463C5.11898 9.55322 4.36959 7.02771 4.36959 6.63097C4.36959 6.23424 6.19898 5.00914 6.25041 4.72077C6.3 4.43424 3.83694 0.160156 3.43837 0.160156C3.03796 0.160156 0 3.85199 0 4.15873C0 4.46546 0.277347 8.42363 5.28796 13.4342C10.3004 18.443 13.5992 18.1565 14.0014 18.1583Z" fill="url(#paint0_linear_39_5263)"/>
<defs>
<linearGradient id="paint0_linear_39_5263" x1="-2.07052" y1="-7.44016" x2="22.834" y2="-7.10224" gradientUnits="userSpaceOnUse">
<stop stop-color="#1F877B"/>
<stop offset="1" stop-color="#1F877B" stop-opacity="0.66"/>
</linearGradient>
</defs>
</svg>
