<svg width="38" height="38" viewBox="0 0 38 38" fill="none" xmlns="http://www.w3.org/2000/svg">
<g id="photo 1">
<path id="Vector" fill-rule="evenodd" clip-rule="evenodd" d="M10.4481 32.9497C10.2213 32.799 9.50327 32.8744 8.97418 32.9497C8.02937 33.0628 7.00898 33.1758 6.4043 32.5353C5.76183 31.8948 5.87521 30.9152 5.98859 29.9733C6.06417 29.4458 6.13976 28.73 5.98859 28.5039C5.84159 28.2841 5.19429 28.0999 4.67219 27.9513L4.62806 27.9388C3.68326 27.675 2.73845 27.4113 2.39832 26.5824C2.06524 25.7707 2.52947 24.9229 2.97475 24.1097L3.00299 24.0581C3.26754 23.6059 3.60767 22.9654 3.56988 22.664C3.53209 22.4003 2.9652 21.9482 2.54949 21.6468C1.83143 21.0816 1 20.4034 1 19.4992C1 18.6457 1.74068 18.0272 2.42761 17.4536L2.54949 17.3516C2.60905 17.303 2.67171 17.2529 2.73548 17.2019C3.11678 16.8969 3.5375 16.5603 3.56988 16.3344C3.60767 16.0706 3.26754 15.4301 3.00299 14.9403L2.97475 14.8887C2.52948 14.0755 2.06524 13.2277 2.39832 12.416C2.72881 11.6106 3.66585 11.3388 4.55076 11.0821L4.62806 11.0596C4.69005 11.0406 4.75565 11.021 4.82327 11.0008L4.82448 11.0004C5.29251 10.8605 5.8566 10.6918 5.98859 10.4945C6.13976 10.2684 6.06417 9.55259 5.98859 9.02512C5.87521 8.08321 5.76183 7.06594 6.4043 6.46311C7.04677 5.82261 8.02937 5.93564 8.97418 6.04867C9.50327 6.12402 10.2213 6.19938 10.4481 6.04867C10.6685 5.90212 10.8533 5.2568 11.0023 4.73629L11.0149 4.69231C11.2795 3.7504 11.544 2.80848 12.3754 2.46939C13.1911 2.06282 14.0431 2.52646 14.8601 2.97107L14.9075 2.99686C15.361 3.2606 16.0035 3.59969 16.3058 3.56201C16.5704 3.52434 17.0239 2.95919 17.3262 2.54475C17.8931 1.82889 18.5734 1 19.4804 1C20.3365 1 20.9569 1.73841 21.5323 2.42324L21.6346 2.54475C21.6831 2.60394 21.7337 2.66679 21.7847 2.73015C22.0907 3.11029 22.4283 3.52973 22.655 3.56201C22.9119 3.62605 23.3871 3.36361 23.8255 3.12148C23.9031 3.07867 23.9794 3.03649 24.0533 2.99686L24.1063 2.96799C24.9216 2.5243 25.7708 2.06216 26.5476 2.39404C27.3554 2.72352 27.6281 3.65769 27.8856 4.53989L27.9081 4.61696C27.9273 4.67913 27.9471 4.74494 27.9675 4.81277C28.1078 5.27937 28.277 5.84174 28.475 5.97332C28.7017 6.12402 29.4198 6.04867 29.9489 5.97332C30.8937 5.86029 31.9141 5.74726 32.5187 6.38776C33.1612 7.02826 33.0478 8.00785 32.9345 8.94977C32.8589 9.47724 32.7833 10.1931 32.9345 10.4192C33.0815 10.639 33.7288 10.8231 34.2509 10.9717L34.295 10.9843C35.2398 11.248 36.1846 11.5117 36.5247 12.3406C36.8578 13.1523 36.3936 14.0002 35.9483 14.8134L35.92 14.865C35.6555 15.3171 35.3154 15.9576 35.3532 16.259C35.391 16.5227 35.9578 16.9749 36.3736 17.2763C37.0916 17.8414 37.923 18.5196 37.923 19.4238C37.923 20.2773 37.1824 20.8958 36.4954 21.4694L36.3736 21.5714C36.314 21.62 36.2513 21.6701 36.1876 21.7211C35.8063 22.0262 35.3855 22.3627 35.3532 22.5887C35.3154 22.8524 35.6555 23.4929 35.92 23.9827L35.9483 24.0343C36.3936 24.8475 36.8578 25.6953 36.5247 26.507C36.1942 27.3124 35.2572 27.5843 34.3723 27.841L34.295 27.8634C34.2326 27.8825 34.1666 27.9023 34.0986 27.9226C33.6305 28.0625 33.0664 28.2312 32.9345 28.4285C32.7833 28.6546 32.8589 29.3705 32.9345 29.8979C33.0478 30.8399 33.1612 31.8571 32.5187 32.4599C31.8763 33.1004 30.8937 32.9874 29.9489 32.8744C29.4198 32.799 28.7017 32.7237 28.475 32.8744C28.2545 33.0209 28.0697 33.6663 27.9207 34.1868L27.9081 34.2307C27.6435 35.1727 27.379 36.1146 26.5476 36.4537C25.7334 36.7857 24.8829 36.3229 24.0672 35.879L24.0155 35.8508C23.562 35.5871 22.9195 35.248 22.6172 35.2857C22.3904 35.3987 21.9369 35.9639 21.6346 36.3783L21.5323 36.4998C20.9569 37.1846 20.3365 37.9231 19.4804 37.9231C18.6243 37.9231 18.0039 37.1846 17.4285 36.4998L17.3262 36.3783C17.2775 36.319 17.2272 36.2564 17.1761 36.1929C16.8701 35.8128 16.5325 35.3933 16.3058 35.361C16.0707 35.2941 15.5369 35.5843 15.0761 35.8349C15.0186 35.8662 14.9621 35.8969 14.9075 35.9262L14.8558 35.9544C14.0401 36.3983 13.1896 36.8611 12.3754 36.529C11.5676 36.1995 11.2949 35.2654 11.0374 34.3832L11.0149 34.3061C10.9957 34.2439 10.9759 34.1781 10.9555 34.1103C10.8152 33.6437 10.646 33.0813 10.4481 32.9497ZM11.7708 19.6876L17.4396 25.3391L27.1522 15.6562L25.5272 13.9984L21.4834 18.0298L17.4396 22.0612L13.4336 18.0298L11.7708 19.6876Z" fill="url(#paint0_linear_34_2947)"/>
</g>
<defs>
<linearGradient id="paint0_linear_34_2947" x1="-33.0391" y1="-50.5389" x2="47.6568" y2="-49.995" gradientUnits="userSpaceOnUse">
<stop stop-color="#1F877B"/>
<stop offset="1" stop-color="#1F877B" stop-opacity="0.66"/>
</linearGradient>
</defs>
</svg>
