<svg width="44" height="44" viewBox="0 0 44 44" fill="none" xmlns="http://www.w3.org/2000/svg">
<g id="&#208;&#178;&#208;&#181;&#209;&#128;&#209;&#129;&#208;&#184;&#209;&#143; &#208;&#180;&#208;&#187;&#209;&#143; &#209;&#129;&#208;&#187;&#208;&#176;&#208;&#177;&#208;&#190;&#208;&#178;&#208;&#184;&#208;&#180;&#209;&#143;&#209;&#137;&#208;&#184;&#209;&#133;">
<path id="Vector" d="M36.9159 18.8033H35.0057C33.889 17.3071 32.0114 16 29.8857 16C27.7633 16 25.8857 17.3037 24.769 18.8033H19.662C18.5453 17.3071 16.6678 16 14.5453 16C12.4196 16 10.5453 17.3037 9.42531 18.8033H7.08408C6.48653 18.8033 6 19.4315 6 20.0496C6 20.6677 6.48327 21.2959 7.08408 21.2959H8.49469C8.4 21.7958 8.34775 22.1437 8.34775 22.6131C8.34775 26.146 11.1298 29 14.5453 29C17.9608 29 20.7429 26.1629 20.7429 22.6267C20.7429 22.1572 20.6906 21.7958 20.5959 21.2959H23.8351C23.7404 21.7958 23.6882 22.1437 23.6882 22.6131C23.6882 26.146 26.4702 29 29.8857 29C33.3045 29 36.0833 26.1629 36.0833 22.6267C36.0833 22.1572 36.031 21.7958 35.9363 21.2959H36.9159C37.5135 21.2959 38 20.6677 38 20.0496C38 19.4315 37.5167 18.8033 36.9159 18.8033ZM14.5453 26.7371C12.3216 26.7371 10.5127 24.8659 10.5127 22.5659C10.5127 20.2658 12.3216 18.3946 14.5453 18.3946C16.769 18.3946 18.578 20.2658 18.578 22.5659C18.5747 24.8659 16.7657 26.7371 14.5453 26.7371ZM29.8857 26.7371C27.662 26.7371 25.8531 24.8659 25.8531 22.5659C25.8531 20.2658 27.662 18.3946 29.8857 18.3946C32.1094 18.3946 33.9184 20.2658 33.9184 22.5659C33.9184 24.8659 32.1094 26.7371 29.8857 26.7371Z" fill="url(#paint0_linear_2_7376)"/>
</g>
<defs>
<linearGradient id="paint0_linear_2_7376" x1="2.31908" y1="10.5111" x2="46.5525" y2="11.9885" gradientUnits="userSpaceOnUse">
<stop stop-color="#1F877B"/>
<stop offset="1" stop-color="#1F877B" stop-opacity="0.66"/>
</linearGradient>
</defs>
</svg>
