<svg width="68" height="68" viewBox="0 0 68 68" fill="none" xmlns="http://www.w3.org/2000/svg">
<g clip-path="url(#clip0_63_6540)">
<path fill-rule="evenodd" clip-rule="evenodd" d="M17.8719 58.1378C17.4662 57.8681 16.1812 58.003 15.2344 58.1378C13.5437 58.3402 11.7178 58.5424 10.6357 57.3962C9.48601 56.2501 9.6889 54.4971 9.89179 52.8116C10.027 51.8677 10.1623 50.5867 9.89179 50.1821C9.62874 49.7888 8.47041 49.4592 7.53613 49.1933L7.45716 49.1709C5.76646 48.6989 4.07575 48.227 3.4671 46.7437C2.87106 45.2912 3.70179 43.774 4.4986 42.3188L4.54914 42.2265C5.02254 41.4173 5.6312 40.2712 5.56357 39.7318C5.49595 39.2599 4.48151 38.4509 3.73761 37.9116C2.45266 36.9001 0.964844 35.6865 0.964844 34.0685C0.964844 32.5412 2.29027 31.4344 3.51951 30.4079L3.73761 30.2254C3.84419 30.1384 3.95632 30.0488 4.07044 29.9575C4.75276 29.4117 5.50563 28.8094 5.56357 28.4052C5.6312 27.9331 5.02254 26.7869 4.54914 25.9104L4.4986 25.8181C3.7018 24.3629 2.87106 22.8458 3.4671 21.3933C4.0585 19.952 5.73531 19.4657 7.31883 19.0063L7.45716 18.966C7.56809 18.932 7.68548 18.897 7.80648 18.8608L7.80865 18.8601C8.64617 18.6097 9.6556 18.3079 9.89179 17.9548C10.1623 17.5502 10.027 16.2692 9.89179 15.3253C9.6889 13.6398 9.48601 11.8194 10.6357 10.7407C11.7854 9.59453 13.5437 9.79679 15.2344 9.99905C16.1812 10.1339 17.4662 10.2687 17.8719 9.99905C18.2664 9.73681 18.5971 8.58202 18.8638 7.65058L18.8863 7.57188C19.3598 5.88636 19.8331 4.20082 21.3209 3.59403C22.7806 2.86648 24.3052 3.69615 25.7672 4.49177L25.852 4.53792C26.6635 5.00988 27.8133 5.61667 28.3542 5.54924C28.8277 5.48183 29.6393 4.47051 30.1802 3.72888C31.1947 2.44787 32.4121 0.9646 34.0351 0.9646C35.5671 0.9646 36.6773 2.28596 37.7069 3.51144L37.89 3.72888C37.9768 3.8348 38.0673 3.94727 38.1586 4.06065C38.7062 4.7409 39.3103 5.49148 39.716 5.54924C40.1757 5.66384 41.026 5.19421 41.8105 4.76092C41.9494 4.68432 42.0859 4.60884 42.2182 4.53792L42.313 4.48626C43.772 3.69229 45.2916 2.8653 46.6817 3.45919C48.1272 4.04879 48.6152 5.72046 49.076 7.29913L49.1163 7.43705C49.1506 7.5483 49.186 7.66606 49.2225 7.78744C49.4736 8.62241 49.7764 9.62876 50.1307 9.86422C50.5364 10.1339 51.8214 9.99905 52.7682 9.86422C54.4589 9.66195 56.2849 9.45969 57.3668 10.6058C58.5165 11.752 58.3136 13.505 58.1109 15.1905C57.9756 16.1344 57.8403 17.4154 58.1109 17.8199C58.3739 18.2134 59.5322 18.5428 60.4665 18.8087L60.5454 18.8313C62.2361 19.3032 63.9268 19.7751 64.5354 21.2584C65.1315 22.7109 64.3008 24.2282 63.504 25.6834L63.4533 25.7757C62.98 26.5847 62.3714 27.7309 62.4391 28.2702C62.5067 28.7421 63.521 29.5513 64.265 30.0907C65.5499 31.1019 67.0377 32.3155 67.0377 33.9336C67.0377 35.4609 65.7124 36.5677 64.483 37.5941L64.265 37.7766C64.1584 37.8636 64.0462 37.9532 63.9322 38.0445C63.2499 38.5905 62.4969 39.1926 62.4391 39.5971C62.3714 40.0689 62.98 41.2151 63.4533 42.0916L63.504 42.1839C64.3008 43.6391 65.1315 45.1562 64.5354 46.6088C63.944 48.05 62.2673 48.5366 60.6838 48.9959L60.5454 49.036C60.4338 49.0702 60.3157 49.1056 60.194 49.1419C59.3563 49.3923 58.3469 49.6942 58.1109 50.0472C57.8403 50.4518 57.9756 51.7329 58.1109 52.6767C58.3136 54.3624 58.5165 56.1826 57.3668 57.2613C56.2172 58.4075 54.4589 58.2053 52.7682 58.003C51.8214 57.8681 50.5364 57.7334 50.1307 58.003C49.7361 58.2652 49.4054 59.4201 49.1388 60.3515L49.1163 60.4301C48.6428 62.1158 48.1694 63.8013 46.6817 64.4081C45.2247 65.0022 43.7027 64.174 42.2431 63.3797L42.1505 63.3292C41.339 62.8574 40.1893 62.2505 39.6483 62.318C39.2425 62.5202 38.4309 63.5316 37.89 64.2732L37.7069 64.4906C36.6773 65.716 35.5671 67.0376 34.0351 67.0376C32.5031 67.0376 31.3929 65.716 30.3633 64.4906L30.1802 64.2732C30.0931 64.1671 30.0031 64.055 29.9116 63.9414C29.364 63.2612 28.7599 62.5106 28.3542 62.4528C27.9335 62.333 26.9783 62.8523 26.1537 63.3008C26.0508 63.3568 25.9497 63.4117 25.852 63.4642L25.7595 63.5146C24.2998 64.309 22.7779 65.1371 21.3209 64.5429C19.8754 63.9532 19.3874 62.2817 18.9266 60.703L18.8863 60.565C18.852 60.4537 18.8165 60.336 18.78 60.2147C18.529 59.3797 18.2262 58.3733 17.8719 58.1378ZM20.239 34.4056L30.3831 44.5188L47.7636 27.1915L44.8557 24.2249L37.6194 31.439L30.3831 38.6531L23.2145 31.439L20.239 34.4056Z" fill="url(#paint0_linear_63_6540)" fill-opacity="0.9"/>
</g>
<defs>
<linearGradient id="paint0_linear_63_6540" x1="-59.9472" y1="-91.2628" x2="84.4559" y2="-90.2896" gradientUnits="userSpaceOnUse">
<stop stop-color="#1F877B"/>
<stop offset="1" stop-color="#1F877B" stop-opacity="0.66"/>
</linearGradient>
<clipPath id="clip0_63_6540">
<rect width="68" height="68" fill="white"/>
</clipPath>
</defs>
</svg>
