<svg width="90" height="90" viewBox="0 0 90 90" fill="none" xmlns="http://www.w3.org/2000/svg">
<g opacity="0.9">
<rect width="90" height="90" rx="45" fill="url(#paint0_linear_47_6407)" fill-opacity="0.15"/>
<g clip-path="url(#clip0_47_6407)">
<mask id="mask0_47_6407" style="mask-type:luminance" maskUnits="userSpaceOnUse" x="23" y="33" width="13" height="14">
<path d="M26.8893 33.3579H32.0845V37.3285H35.9524V42.6697H32.0845V46.6461H26.8893V42.6697H23.0215V37.3285H26.8893V33.3579Z" fill="white"/>
</mask>
<g mask="url(#mask0_47_6407)">
<path d="M35.9466 33.3579H23.0215V46.6461H35.9466V33.3579Z" fill="url(#paint1_linear_47_6407)"/>
</g>
<mask id="mask1_47_6407" style="mask-type:luminance" maskUnits="userSpaceOnUse" x="46" y="33" width="29" height="34">
<path d="M65.5989 50.2644L56.2956 33.6997L46.9922 50.2644L56.2956 66.8291H74.8966L65.5989 50.2644Z" fill="white"/>
</mask>
<g mask="url(#mask1_47_6407)">
<path d="M74.8966 33.6997H46.9922V66.8291H74.8966V33.6997Z" fill="url(#paint2_linear_47_6407)"/>
</g>
<mask id="mask2_47_6407" style="mask-type:luminance" maskUnits="userSpaceOnUse" x="37" y="17" width="20" height="17">
<path d="M37.6934 33.6995H56.3001L46.9967 17.1348L37.6934 33.6995Z" fill="white"/>
</mask>
<g mask="url(#mask2_47_6407)">
<path d="M56.3001 17.1348H37.6934V33.6995H56.3001V17.1348Z" fill="url(#paint3_linear_47_6407)"/>
</g>
<mask id="mask3_47_6407" style="mask-type:luminance" maskUnits="userSpaceOnUse" x="37" y="33" width="20" height="18">
<path d="M56.3001 33.6997H37.6934L46.9967 50.2644L56.3001 33.6997Z" fill="white"/>
</mask>
<g mask="url(#mask3_47_6407)">
<path d="M56.3001 33.6997H37.6934V50.2644H56.3001V33.6997Z" fill="url(#paint4_linear_47_6407)"/>
</g>
<mask id="mask4_47_6407" style="mask-type:luminance" maskUnits="userSpaceOnUse" x="19" y="50" width="28" height="17">
<path d="M28.3874 50.2639L19.084 66.8286H37.6907L46.9941 50.2639H28.3874Z" fill="white"/>
</mask>
<g mask="url(#mask4_47_6407)">
<path d="M46.9941 50.2639H19.084V66.8286H46.9941V50.2639Z" fill="url(#paint5_linear_47_6407)"/>
</g>
</g>
</g>
<defs>
<linearGradient id="paint0_linear_47_6407" x1="-10.3526" y1="-38.0002" x2="114.17" y2="-36.3105" gradientUnits="userSpaceOnUse">
<stop stop-color="#1F877B"/>
<stop offset="1" stop-color="#1F877B" stop-opacity="0.66"/>
</linearGradient>
<linearGradient id="paint1_linear_47_6407" x1="31.6506" y1="38.0197" x2="25.9299" y2="42.9741" gradientUnits="userSpaceOnUse">
<stop stop-color="#C01818"/>
<stop offset="1" stop-color="#E10714"/>
</linearGradient>
<linearGradient id="paint2_linear_47_6407" x1="49.8522" y1="39.0005" x2="66.6165" y2="55.1066" gradientUnits="userSpaceOnUse">
<stop stop-color="#5DB98D"/>
<stop offset="1" stop-color="#057373"/>
</linearGradient>
<linearGradient id="paint3_linear_47_6407" x1="46.9958" y1="33.6998" x2="46.9958" y2="25.4174" gradientUnits="userSpaceOnUse">
<stop stop-color="#5DB98D"/>
<stop offset="1" stop-color="#057373"/>
</linearGradient>
<linearGradient id="paint4_linear_47_6407" x1="46.8598" y1="46.6445" x2="47.1622" y2="36.8391" gradientUnits="userSpaceOnUse">
<stop stop-color="#5DB98D"/>
<stop offset="1" stop-color="#057373"/>
</linearGradient>
<linearGradient id="paint5_linear_47_6407" x1="22.3283" y1="64.9094" x2="44.0604" y2="52.6957" gradientUnits="userSpaceOnUse">
<stop stop-color="#5DB98D"/>
<stop offset="1" stop-color="#057373"/>
</linearGradient>
<clipPath id="clip0_47_6407">
<rect width="56" height="50" fill="white" transform="translate(19 17)"/>
</clipPath>
</defs>
</svg>
