<svg width="197" height="46" viewBox="0 0 197 46" fill="none" xmlns="http://www.w3.org/2000/svg">
<g id="Group">
<path id="Vector" d="M189.928 36.6758H193.499V45.9786H196.701V24.2666H193.499V33.5694H189.928V24.2666H186.786V45.9786H189.928V36.6758ZM176.502 36.6758H180.073V45.9786H183.275V24.2666H180.073V33.5694H176.502V24.2666H173.36V45.9786H176.502V36.6758ZM162.273 27.3675V34.0348H161.046C159.874 34.0348 159.161 33.4774 159.161 31.7402V29.6026C159.161 28.0494 159.645 27.3675 160.762 27.3675H162.273ZM158.842 45.9786C159.012 45.4212 159.126 45.0803 159.126 43.3106V39.9012C159.126 37.888 159.755 37.1412 161.186 37.1412H162.273V45.9786H165.415V24.2666H160.672C157.416 24.2666 156.014 25.9118 156.014 29.2617V30.9664C156.014 33.2014 156.672 34.6572 158.074 35.3715C156.503 36.0859 155.989 37.7311 155.989 39.9932V43.3431C155.989 44.3984 155.959 45.1723 155.645 45.9786H158.842ZM148.648 36.021L149.935 30.685V45.9786H152.762V24.2666H149.306L146.733 33.2285L145.591 38.0071V24.2666H142.788V45.9786H146.02L148.648 36.021ZM130.444 24.2666H126.07V45.9786H128.813V30.6254L131.157 45.9786H134.13L136.304 30.409V45.9786H139.277V24.2666H134.903L132.758 39.6793L130.444 24.2666ZM117.502 27.3675H122.933V24.2666H114.36V45.9786H122.933V42.8777H117.502V36.5188H121.816V33.4179H117.502V27.3675ZM104.161 27.3675H106.819V42.9372H102.704C103.218 42.4122 103.502 41.6979 103.592 40.0527L104.161 27.3675ZM111.392 48.8955V42.9426H110.021V24.272H101.218L100.505 40.1231C100.45 41.3948 100.276 42.2012 99.732 42.948H98.5051V48.901H101.562V45.984H108.28V48.901H111.392V48.8955ZM90.8495 28.1144L92.3657 39.0948H89.3384L90.8495 28.1144ZM93.3083 24.2666H88.705L85.5031 45.9786H88.3908L88.9344 42.0388H92.7946L93.3382 45.9786H96.5102L93.3083 24.2666ZM80.4509 45.9786H83.6827L79.3088 33.9428L83.6827 24.2666H80.5407L76.4261 33.7264V24.2666H73.2841V45.9786H76.4261V39.3113L77.3987 37.3252L80.4509 45.9786ZM64.9353 28.1144L66.4515 39.0948H63.4241L64.9353 28.1144ZM67.3941 24.2666H62.7907L59.5889 45.9786H62.4765L63.0202 42.0388H66.8804L67.424 45.9786H70.5959L67.3941 24.2666Z" fill="#595757"/>
<g id="Group_2">
<g id="Clip path group">
<mask id="mask0_2_21822" style="mask-type:luminance" maskUnits="userSpaceOnUse" x="3" y="15" width="12" height="13">
<g id="SVGID_2_">
<path id="Vector_2" d="M6.87828 15.0503H11.4068V18.7032H14.7782V23.6171H11.4068V27.2755H6.87828V23.6171H3.50684V18.7032H6.87828V15.0503Z" fill="white"/>
</g>
</mask>
<g mask="url(#mask0_2_21822)">
<path id="Vector_3" d="M14.7732 15.0503H3.50684V27.2755H14.7732V15.0503Z" fill="url(#paint0_linear_2_21822)"/>
</g>
</g>
</g>
<g id="Group_3">
<g id="Clip path group_2">
<mask id="mask1_2_21822" style="mask-type:luminance" maskUnits="userSpaceOnUse" x="24" y="15" width="25" height="31">
<g id="SVGID_5_">
<path id="Vector_4" d="M40.6222 30.6038L32.5127 15.3643L24.4033 30.6038L32.5127 45.8433H48.7266L40.6222 30.6038Z" fill="white"/>
</g>
</mask>
<g mask="url(#mask1_2_21822)">
<path id="Vector_5" d="M48.7266 15.3643H24.4033V45.8433H48.7266V15.3643Z" fill="url(#paint1_linear_2_21822)"/>
</g>
</g>
</g>
<g id="Group_4">
<g id="Clip path group_3">
<mask id="mask2_2_21822" style="mask-type:luminance" maskUnits="userSpaceOnUse" x="16" y="0" width="17" height="16">
<g id="SVGID_8_">
<path id="Vector_6" d="M16.2939 15.364H32.5128L24.4034 0.124512L16.2939 15.364Z" fill="white"/>
</g>
</mask>
<g mask="url(#mask2_2_21822)">
<path id="Vector_7" d="M32.5128 0.124512H16.2939V15.364H32.5128V0.124512Z" fill="url(#paint2_linear_2_21822)"/>
</g>
</g>
</g>
<g id="Group_5">
<g id="Clip path group_4">
<mask id="mask3_2_21822" style="mask-type:luminance" maskUnits="userSpaceOnUse" x="16" y="15" width="17" height="16">
<g id="SVGID_11_">
<path id="Vector_8" d="M32.5128 15.3643H16.2939L24.4034 30.6038L32.5128 15.3643Z" fill="white"/>
</g>
</mask>
<g mask="url(#mask3_2_21822)">
<path id="Vector_9" d="M32.5128 15.3643H16.2939V30.6038H32.5128V15.3643Z" fill="url(#paint3_linear_2_21822)"/>
</g>
</g>
</g>
<g id="Group_6">
<g id="Clip path group_5">
<mask id="mask4_2_21822" style="mask-type:luminance" maskUnits="userSpaceOnUse" x="0" y="30" width="25" height="16">
<g id="SVGID_14_">
<path id="Vector_10" d="M8.18461 30.6035L0.0751953 45.843H16.294L24.4034 30.6035H8.18461Z" fill="white"/>
</g>
</mask>
<g mask="url(#mask4_2_21822)">
<path id="Vector_11" d="M24.4034 30.6035H0.0751953V45.843H24.4034V30.6035Z" fill="url(#paint4_linear_2_21822)"/>
</g>
</g>
</g>
<path id="Vector_12" d="M195.061 7.28991C195.5 7.28991 195.739 7.50638 195.739 8.18826V9.62238C195.739 10.3043 195.5 10.5207 195.061 10.5207H194.407V7.28991H195.061ZM195.061 5.92614H193.026V15.4671H194.407V11.8791H195.061C196.442 11.8791 197.12 11.0457 197.12 9.51955V8.28026C197.12 6.75414 196.442 5.92614 195.061 5.92614ZM185.31 7.28991H186.757V15.4671H188.138V7.28991H189.585V5.92614H185.31V7.28991ZM178.892 11.3812H180.463V15.4725H181.869V5.93155H180.463V10.0229H178.892V5.93155H177.51V15.4725H178.892V11.3812ZM171.426 7.28991H173.815V5.92614H170.044V15.4671H173.815V14.1033H171.426V11.3108H173.321V9.94709H171.426V7.28991ZM161.486 15.4671H165.107V16.7497H166.453V14.1304H165.85V5.92073H164.443V14.1033H162.872V5.92073H161.491V15.4671H161.486ZM150.254 3.79932C150.215 4.30261 150.005 4.42708 149.626 4.42708C149.262 4.42708 149.072 4.30261 149.038 3.79932H148.185C148.21 4.72473 148.663 5.31461 149.631 5.31461C150.609 5.31461 151.102 4.73014 151.102 3.79932H150.254ZM148.833 15.4671H147.412V5.92614H148.644V11.9657L149.147 9.8659L150.279 5.92614H151.8V15.4671H150.559V8.74567L149.995 11.089L148.833 15.4671ZM141.786 11.0944L142.349 8.75108V15.4725H143.591V5.93155H142.07L140.938 9.87132L140.434 11.9711V5.93155H139.202V15.4725H140.624L141.786 11.0944ZM134.32 15.4671H135.741L133.821 10.1798L135.741 5.92614H134.36L132.549 10.0824V5.92614H131.168V15.4671H132.549V12.5339L132.978 11.6626L134.32 15.4671ZM126.176 11.9116V13.2753C126.176 13.9572 125.901 14.2007 125.457 14.2007C125.018 14.2007 124.739 13.9572 124.739 13.2753V8.11791C124.739 7.43602 125.013 7.17626 125.457 7.17626C125.896 7.17626 126.176 7.43602 126.176 8.11791V9.14073H127.482V8.21532C127.482 6.6892 126.779 5.81791 125.422 5.81791C124.066 5.81791 123.363 6.6892 123.363 8.21532V13.1779C123.363 14.704 124.066 15.5753 125.422 15.5753C126.779 15.5753 127.482 14.704 127.482 13.1779V11.9116H126.176ZM116.655 11.3812H118.226V15.4725H119.632V5.93155H118.226V10.0229H116.655V5.93155H115.273V15.4725H116.655V11.3812ZM109.642 11.0944L110.206 8.75108V15.4725H111.448V5.93155H109.927L108.795 9.87132L108.291 11.9711V5.93155H107.059V15.4725H108.48L109.642 11.0944ZM98.5107 15.4671H102.132V16.7497H103.478V14.1304H102.875V5.92073H101.468V14.1033H99.8972V5.92073H98.5157V15.4671H98.5107ZM92.88 11.0944L93.4436 8.75108V15.4725H94.6855V5.93155H93.1643L92.0322 9.87132L91.5285 11.9711V5.93155H90.2966V15.4725H91.718L92.88 11.0944ZM83.5188 7.28991H84.6858V14.1358H82.8754C83.0999 13.9031 83.2295 13.5892 83.2644 12.8694L83.5188 7.28991ZM86.6957 16.7497V14.1304H86.0923V5.92073H82.2221L81.9079 12.8857C81.8829 13.4431 81.8081 13.8003 81.5687 14.125H81.0301V16.7443H82.3767V15.4617H85.3292V16.7443H86.6957V16.7497ZM75.2498 7.28991H77.6387V5.92614H73.8683V15.4671H77.6387V14.1033H75.2498V11.3108H77.145V9.94709H75.2498V7.28991ZM66.1379 5.92614H64.2178V15.4671H65.4247V8.71861L66.4571 15.4671H67.7638L68.7164 8.6212V15.4671H70.023V5.92614H68.1029L67.1603 12.7017L66.1379 5.92614Z" fill="#E44342"/>
</g>
<defs>
<linearGradient id="paint0_linear_2_21822" x1="11.0285" y1="19.3392" x2="5.81331" y2="23.6184" gradientUnits="userSpaceOnUse">
<stop stop-color="#C01818"/>
<stop offset="1" stop-color="#E10714"/>
</linearGradient>
<linearGradient id="paint1_linear_2_21822" x1="26.8963" y1="20.241" x2="42.2639" y2="34.2295" gradientUnits="userSpaceOnUse">
<stop stop-color="#5DB98D"/>
<stop offset="1" stop-color="#057373"/>
</linearGradient>
<linearGradient id="paint2_linear_2_21822" x1="24.4026" y1="15.3643" x2="24.4026" y2="7.74455" gradientUnits="userSpaceOnUse">
<stop stop-color="#5DB98D"/>
<stop offset="1" stop-color="#057373"/>
</linearGradient>
<linearGradient id="paint3_linear_2_21822" x1="24.284" y1="27.2734" x2="24.5776" y2="18.2535" gradientUnits="userSpaceOnUse">
<stop stop-color="#5DB98D"/>
<stop offset="1" stop-color="#057373"/>
</linearGradient>
<linearGradient id="paint4_linear_2_21822" x1="2.90317" y1="44.0774" x2="22.3232" y2="33.7365" gradientUnits="userSpaceOnUse">
<stop stop-color="#5DB98D"/>
<stop offset="1" stop-color="#057373"/>
</linearGradient>
</defs>
</svg>
