<svg width="20" height="21" viewBox="0 0 20 21" fill="none" xmlns="http://www.w3.org/2000/svg">
<g id="Group 1948754463">
<path id="Vector" opacity="0.7" d="M10.8681 0.5C9.44075 0.5 8.02742 0.781131 6.70878 1.32734C5.39013 1.87355 4.19199 2.67414 3.18279 3.68339C2.17358 4.69264 1.37307 5.8908 0.826963 7.20943C0.280857 8.52805 -0.000144525 9.94133 5.57642e-08 11.3686V20.5H9.13084C12.0135 20.5 14.7781 19.3549 16.8165 17.3167C18.8549 15.2784 20 12.514 20 9.63144V0.5H10.8681ZM14.5891 11.9949H11.4945V15.0905H8.50443V11.9949H5.40981V9.00506H8.50443V5.91061H11.4945V9.00506H14.5836L14.5891 11.9949Z" fill="url(#paint0_linear_146_6382)"/>
</g>
<defs>
<linearGradient id="paint0_linear_146_6382" x1="-23.7143" y1="-38.1956" x2="-29.9018" y2="67.1362" gradientUnits="userSpaceOnUse">
<stop stop-color="#E44342"/>
<stop offset="1" stop-color="#E65756" stop-opacity="0.48"/>
</linearGradient>
</defs>
</svg>
