<svg width="48" height="48" viewBox="0 0 48 48" fill="none" xmlns="http://www.w3.org/2000/svg">
<path fill-rule="evenodd" clip-rule="evenodd" d="M0 24C0 10.7452 10.7452 0 24 0V0C37.2548 0 48 10.7452 48 24V24C48 37.2548 37.2548 48 24 48V48C10.7452 48 0 37.2548 0 24V24Z" fill="#319680"/>
<path fill-rule="evenodd" clip-rule="evenodd" d="M22.2047 27.6008C19.2275 27.6008 16.8047 25.178 16.8047 22.2008C16.8047 19.2236 19.2275 16.8008 22.2047 16.8008C25.1819 16.8008 27.6047 19.2236 27.6047 22.2008C27.6047 25.178 25.1819 27.6008 22.2047 27.6008V27.6008ZM33.2527 31.552L28.4947 26.794C29.4391 25.5028 30.0043 23.9188 30.0043 22.2004C30.0043 17.8996 26.5051 14.4004 22.2043 14.4004C17.9035 14.4004 14.4043 17.8996 14.4043 22.2004C14.4043 26.5012 17.9035 30.0004 22.2043 30.0004C23.9227 30.0004 25.5067 29.4352 26.7979 28.4908L31.5559 33.2488L33.2527 31.552Z" fill="white"/>
</svg>
