<svg width="110" height="37" viewBox="0 0 110 37" fill="none" xmlns="http://www.w3.org/2000/svg">
<path id="Vector 93" d="M2.44651 24.6704L0.487769 26.2239L3.59474 30.1414L5.55349 28.5879L2.44651 24.6704ZM108.79 24.2709C109.972 23.5586 110.354 22.0224 109.642 20.8395L98.0351 1.56427C97.3228 0.38144 95.7866 -4.673e-05 94.6038 0.712193C93.4209 1.42443 93.0394 2.96069 93.7517 4.14352L104.069 21.2771L86.9351 31.5941C85.7523 32.3063 85.3708 33.8426 86.083 35.0254C86.7953 36.2082 88.3315 36.5897 89.5143 35.8775L108.79 24.2709ZM5.55349 28.5879C9.88831 25.15 20.3536 20.4241 37.3158 18.4372C54.199 16.4596 77.3535 17.219 106.897 24.5555L108.103 19.7029C78.0465 12.2393 54.2843 11.4154 36.7342 13.4711C19.263 15.5176 7.77836 20.4417 2.44651 24.6704L5.55349 28.5879Z" fill="url(#paint0_linear_64_7338)"/>
<defs>
<linearGradient id="paint0_linear_64_7338" x1="-7.90549" y1="10.0899" x2="133.263" y2="27.1384" gradientUnits="userSpaceOnUse">
<stop stop-color="#1F877B"/>
<stop offset="1" stop-color="#1F877B" stop-opacity="0.66"/>
</linearGradient>
</defs>
</svg>
