<svg width="16" height="16" viewBox="0 0 16 16" fill="none" xmlns="http://www.w3.org/2000/svg">
<g id="Telegram">
<rect width="16" height="16" rx="8" fill="#419FD9"/>
<path id="Exclude" fill-rule="evenodd" clip-rule="evenodd" d="M9.29336 10.8812C9.70002 11.0592 9.85253 10.6864 9.85253 10.6864L10.9285 5.28107C10.92 4.91676 10.4286 5.13704 10.4286 5.13704L4.40485 7.50081C4.40485 7.50081 4.1168 7.60248 4.14221 7.78039C4.16763 7.95831 4.39638 8.04303 4.39638 8.04303L5.91292 8.55137C5.91292 8.55137 6.37042 10.051 6.46362 10.339C6.54834 10.6186 6.62459 10.6271 6.62459 10.6271C6.70931 10.661 6.78556 10.6017 6.78556 10.6017L7.76835 9.71207L9.29336 10.8812ZM9.556 6.23843C9.556 6.23843 9.76781 6.11135 9.75933 6.23843C9.75933 6.23843 9.79322 6.25537 9.68308 6.37399C9.58142 6.47565 7.18376 8.62761 6.86182 8.91567C6.8364 8.93261 6.81945 8.95803 6.81945 8.99192L6.72626 9.78831C6.70931 9.87303 6.59918 9.88151 6.57376 9.80526L6.17556 8.50053C6.15862 8.44969 6.17556 8.39039 6.2264 8.3565L9.556 6.23843Z" fill="white"/>
</g>
</svg>
