<svg width="16" height="16" viewBox="0 0 16 16" fill="none" xmlns="http://www.w3.org/2000/svg">
<g id="WhatsApp Line">
<rect width="16" height="16" rx="8" fill="#7C529E"/>
<g id="Union">
<path d="M8.08647 5.08213C7.94064 5.08213 7.94064 5.3094 8.08647 5.31129C9.21791 5.32 10.1497 6.10864 10.16 7.55523C10.16 7.70788 10.3834 7.70599 10.3815 7.55334C10.3694 5.99463 9.35162 5.09084 8.08647 5.08213Z" fill="white"/>
<path d="M9.57354 7.31546C9.57013 7.46621 9.79324 7.47341 9.79513 7.32076C9.81369 6.46129 9.28377 5.75333 8.28793 5.67871C8.1421 5.66811 8.12695 5.89727 8.2724 5.90788C9.13604 5.97341 9.59097 6.5628 9.57354 7.31546Z" fill="white"/>
<path d="M8.87938 8.35864C8.95817 8.2522 9.1487 8.18478 9.33582 8.29311C9.58809 8.44046 9.9093 8.66963 10.1222 8.8772C10.2423 8.97834 10.2695 9.13288 10.1873 9.29614V9.29879C10.0021 9.63629 9.65514 10.009 9.29832 9.89008L9.29491 9.88478C8.93279 9.77985 8.07976 9.32531 7.54074 8.88175C6.59266 8.1065 6.18239 7.12394 5.95801 6.58657C5.91094 6.47384 5.87205 6.38071 5.83809 6.31319C5.72332 5.94387 6.08203 5.58516 6.40968 5.39349H6.41309C6.57067 5.30826 6.72218 5.33667 6.82294 5.46281C6.84651 5.49579 6.87568 5.53123 6.91043 5.57345C7.01696 5.70288 7.17598 5.89609 7.38733 6.27796C7.49226 6.47152 7.42711 6.66849 7.32408 6.75031L7.11802 6.92076C7.01347 7.0075 7.02749 7.16925 7.02749 7.16925C7.02749 7.16925 7.33279 8.36394 8.47445 8.66584C8.47445 8.66584 8.63089 8.68023 8.71461 8.5719L8.87938 8.35864Z" fill="white"/>
<path d="M8.44518 6.52417C8.8092 6.54538 8.98571 6.73553 9.00465 7.12606C9.01147 7.27871 9.23306 7.26811 9.22625 7.11545C9.202 6.6056 8.93609 6.32151 8.4573 6.295C8.31147 6.28629 8.29783 6.51545 8.44518 6.52417Z" fill="white"/>
<path fill-rule="evenodd" clip-rule="evenodd" d="M11.3722 4.34083C12.0964 4.99272 12.4979 6.43401 12.2267 8.71697C11.9894 10.7312 10.6315 11.0879 10.1757 11.2077C10.131 11.2194 10.0949 11.2289 10.0695 11.2374C9.94639 11.2783 8.86306 11.5586 7.45245 11.4363C7.40327 11.495 7.35654 11.5509 7.31209 11.6041C6.59408 12.4631 6.47035 12.6111 6.21495 12.5283C5.97783 12.4537 5.99185 12.0825 5.99185 12.0825L5.99374 11.1662H5.99185C3.93086 10.5662 3.95965 8.35447 3.98389 7.17378C4.00814 5.99348 4.22935 5.04007 4.85738 4.39045C6.25586 3.06242 10.2036 3.22719 11.3725 4.34045L11.3722 4.34083ZM6.42101 12.1939C6.69867 11.9048 7.59147 10.7916 7.59147 10.7916C8.78768 10.8715 9.74033 10.6264 9.84298 10.5923C9.8669 10.5844 9.9014 10.5761 9.94434 10.5657C10.3326 10.472 11.4113 10.2115 11.6108 8.54916C11.6106 8.5409 11.6135 8.51162 11.6182 8.46447C11.6656 7.98639 11.8954 5.67132 10.9142 4.80144C10.0324 3.97265 6.57139 3.71545 5.3445 4.86583C4.81268 5.40939 4.63238 6.21659 4.61344 7.20219C4.61279 7.23605 4.61204 7.27097 4.61127 7.30686C4.5896 8.31523 4.55152 10.088 6.23882 10.5715C6.23882 10.5715 6.232 11.9704 6.232 12.0927C6.23048 12.2791 6.33011 12.2878 6.42101 12.1939Z" fill="white"/>
</g>
</g>
</svg>
