<svg width="16" height="16" viewBox="0 0 16 16" fill="none" xmlns="http://www.w3.org/2000/svg">
<g id="Vkontakte (VK)">
<rect width="16" height="16" rx="8" fill="#5181B8"/>
<path id="Vector" fill-rule="evenodd" clip-rule="evenodd" d="M11.7007 6.19061C11.7546 6.01081 11.7007 5.87866 11.444 5.87866H10.5953C10.3795 5.87866 10.2801 5.99281 10.2262 6.11872C10.2262 6.11872 9.79454 7.17066 9.18312 7.85397C8.98532 8.05177 8.89542 8.11464 8.78752 8.11464C8.73356 8.11464 8.65549 8.05178 8.65549 7.87198V6.19061C8.65549 5.97481 8.59286 5.87866 8.413 5.87866H7.07936C6.94454 5.87866 6.86343 5.97881 6.86343 6.07374C6.86343 6.27833 7.16908 6.32549 7.2006 6.9009V8.15071C7.2006 8.42471 7.15113 8.47442 7.04323 8.47442C6.75553 8.47442 6.05573 7.41769 5.6406 6.20862C5.55925 5.97359 5.47765 5.87866 5.26075 5.87866H4.41207C4.16959 5.87866 4.12109 5.99281 4.12109 6.11872C4.12109 6.3435 4.40886 7.45842 5.4608 8.93295C6.16218 9.93985 7.15016 10.4858 8.04928 10.4858C8.5888 10.4858 8.65549 10.3646 8.65549 10.1557V9.39463C8.65549 9.15215 8.70659 9.10378 8.87736 9.10378C9.00332 9.10378 9.21907 9.1667 9.72264 9.65221C10.298 10.2276 10.3929 10.4858 10.7166 10.4858H11.5653C11.8077 10.4858 11.929 10.3646 11.859 10.1253C11.7825 9.88681 11.5078 9.54091 11.1432 9.13075C10.9454 8.89694 10.6487 8.64519 10.5588 8.51934C10.4329 8.35748 10.4689 8.28559 10.5588 8.1418C10.5588 8.1418 11.5928 6.68515 11.7007 6.19061Z" fill="white"/>
</g>
</svg>
