<svg width="68" height="68" viewBox="0 0 68 68" fill="none" xmlns="http://www.w3.org/2000/svg">
<g id="photo 1" clip-path="url(#clip0_47_6462)">
<path id="Vector" fill-rule="evenodd" clip-rule="evenodd" d="M17.8719 58.1379C17.4662 57.8682 16.1812 58.0031 15.2344 58.1379C13.5437 58.3402 11.7178 58.5424 10.6357 57.3963C9.48601 56.2501 9.6889 54.4972 9.89179 52.8117C10.027 51.8677 10.1623 50.5868 9.89179 50.1822C9.62874 49.7889 8.47041 49.4593 7.53613 49.1933L7.45716 49.171C5.76646 48.6989 4.07575 48.227 3.4671 46.7437C2.87106 45.2912 3.70179 43.7741 4.4986 42.3189L4.54914 42.2266C5.02254 41.4174 5.6312 40.2712 5.56357 39.7319C5.49595 39.26 4.48151 38.451 3.73761 37.9116C2.45266 36.9002 0.964844 35.6866 0.964844 34.0685C0.964844 32.5412 2.29027 31.4344 3.51951 30.408L3.73761 30.2255C3.84419 30.1385 3.95632 30.0488 4.07044 29.9576C4.75276 29.4118 5.50563 28.8095 5.56357 28.4052C5.6312 27.9331 5.02254 26.787 4.54914 25.9105L4.4986 25.8182C3.7018 24.363 2.87106 22.8459 3.4671 21.3933C4.0585 19.9521 5.73531 19.4657 7.31883 19.0064L7.45716 18.9661C7.56809 18.9321 7.68548 18.897 7.80648 18.8609L7.80865 18.8602C8.64617 18.6098 9.6556 18.3079 9.89179 17.9549C10.1623 17.5503 10.027 16.2693 9.89179 15.3254C9.6889 13.6399 9.48601 11.8195 10.6357 10.7407C11.7854 9.59459 13.5437 9.79685 15.2344 9.99911C16.1812 10.134 17.4662 10.2688 17.8719 9.99911C18.2664 9.73687 18.5971 8.58208 18.8638 7.65065L18.8863 7.57194C19.3598 5.88642 19.8331 4.20088 21.3209 3.59409C22.7806 2.86654 24.3052 3.69621 25.7672 4.49183L25.852 4.53798C26.6635 5.00994 27.8133 5.61673 28.3542 5.5493C28.8277 5.48189 29.6393 4.47057 30.1802 3.72894C31.1947 2.44793 32.4121 0.964661 34.0351 0.964661C35.5671 0.964661 36.6773 2.28602 37.7069 3.5115L37.89 3.72894C37.9768 3.83486 38.0673 3.94733 38.1586 4.06071C38.7062 4.74096 39.3103 5.49154 39.716 5.5493C40.1757 5.6639 41.026 5.19427 41.8105 4.76099C41.9494 4.68438 42.0859 4.6089 42.2182 4.53798L42.313 4.48632C43.772 3.69235 45.2916 2.86536 46.6817 3.45925C48.1272 4.04885 48.6152 5.72052 49.076 7.29919L49.1163 7.43711C49.1506 7.54836 49.186 7.66612 49.2225 7.7875C49.4736 8.62247 49.7764 9.62882 50.1307 9.86428C50.5364 10.134 51.8214 9.99912 52.7682 9.86428C54.4589 9.66201 56.2849 9.45975 57.3668 10.6059C58.5165 11.7521 58.3136 13.505 58.1109 15.1906C57.9756 16.1345 57.8403 17.4155 58.1109 17.82C58.3739 18.2134 59.5322 18.5429 60.4665 18.8088L60.5454 18.8313C62.2361 19.3032 63.9268 19.7751 64.5354 21.2584C65.1315 22.7109 64.3008 24.2282 63.504 25.6834L63.4533 25.7758C62.98 26.5848 62.3714 27.7309 62.4391 28.2703C62.5067 28.7422 63.521 29.5514 64.265 30.0907C65.5499 31.1019 67.0377 32.3156 67.0377 33.9336C67.0377 35.4609 65.7124 36.5677 64.483 37.5942L64.265 37.7767C64.1584 37.8637 64.0462 37.9533 63.9322 38.0446C63.2499 38.5905 62.4969 39.1927 62.4391 39.5971C62.3714 40.069 62.98 41.2152 63.4533 42.0916L63.504 42.184C64.3008 43.6392 65.1315 45.1563 64.5354 46.6088C63.944 48.0501 62.2673 48.5366 60.6838 48.996L60.5454 49.0361C60.4338 49.0702 60.3157 49.1057 60.194 49.142C59.3563 49.3923 58.3469 49.6942 58.1109 50.0473C57.8403 50.4519 57.9756 51.733 58.1109 52.6767C58.3136 54.3624 58.5165 56.1827 57.3668 57.2614C56.2172 58.4075 54.4589 58.2053 52.7682 58.0031C51.8214 57.8682 50.5364 57.7334 50.1307 58.0031C49.7361 58.2653 49.4054 59.4202 49.1388 60.3516L49.1163 60.4302C48.6428 62.1158 48.1694 63.8014 46.6817 64.4082C45.2247 65.0023 43.7027 64.1741 42.2431 63.3798L42.1505 63.3293C41.339 62.8574 40.1893 62.2506 39.6483 62.3181C39.2425 62.5203 38.4309 63.5317 37.89 64.2732L37.7069 64.4907C36.6773 65.7161 35.5671 67.0376 34.0351 67.0376C32.5031 67.0376 31.3929 65.7161 30.3633 64.4907L30.1802 64.2732C30.0931 64.1671 30.0031 64.0551 29.9116 63.9415C29.364 63.2613 28.7599 62.5106 28.3542 62.4528C27.9335 62.3331 26.9783 62.8524 26.1537 63.3008C26.0508 63.3569 25.9497 63.4118 25.852 63.4642L25.7595 63.5147C24.2998 64.309 22.7779 65.1372 21.3209 64.5429C19.8754 63.9533 19.3874 62.2817 18.9266 60.7031L18.8863 60.5651C18.852 60.4538 18.8165 60.336 18.78 60.2147C18.529 59.3797 18.2262 58.3733 17.8719 58.1379ZM20.239 34.4057L30.3831 44.5189L47.7636 27.1916L44.8557 24.225L37.6194 31.4391L30.3831 38.6532L23.2145 31.4391L20.239 34.4057Z" fill="url(#paint0_linear_47_6462)" fill-opacity="0.2"/>
</g>
<defs>
<linearGradient id="paint0_linear_47_6462" x1="-59.9472" y1="-91.2628" x2="84.4559" y2="-90.2895" gradientUnits="userSpaceOnUse">
<stop stop-color="#1F877B"/>
<stop offset="1" stop-color="#1F877B" stop-opacity="0.66"/>
</linearGradient>
<clipPath id="clip0_47_6462">
<rect width="68" height="68" fill="white"/>
</clipPath>
</defs>
</svg>
