<svg width="16" height="16" viewBox="0 0 16 16" fill="none" xmlns="http://www.w3.org/2000/svg">
<g id="WhatsApp Line">
<rect width="16" height="16" rx="8" fill="#0DC143"/>
<path id="Vector" d="M11.1769 4.8126C10.4167 4.03004 9.36583 3.60522 8.29261 3.60522C6.01202 3.60522 4.17861 5.461 4.20097 7.71923C4.20097 8.43471 4.4022 9.12783 4.73758 9.75387L4.15625 11.878L6.32505 11.319C6.92873 11.6544 7.59949 11.8109 8.27026 11.8109C10.5285 11.8109 12.3619 9.9551 12.3619 7.69687C12.3619 6.60129 11.9371 5.57279 11.1769 4.8126ZM8.29261 11.1178C7.68893 11.1178 7.08524 10.9612 6.57099 10.6482L6.43684 10.5811L5.14003 10.9165L5.47541 9.64208L5.38598 9.50793C4.4022 7.92046 4.87173 5.81874 6.48156 4.83495C8.09139 3.85117 10.1707 4.3207 11.1545 5.93053C12.1383 7.54036 11.6688 9.61972 10.059 10.6035C9.5447 10.9389 8.91866 11.1178 8.29261 11.1178ZM10.2602 8.63594L10.0142 8.52414C10.0142 8.52414 9.6565 8.36763 9.43291 8.25584C9.41055 8.25584 9.38819 8.23348 9.36583 8.23348C9.29876 8.23348 9.25404 8.25584 9.20932 8.2782C9.20932 8.2782 9.18696 8.30056 8.87394 8.6583C8.85158 8.70301 8.80686 8.72537 8.76215 8.72537H8.73979C8.71743 8.72537 8.67271 8.70301 8.65035 8.68065L8.53856 8.63594C8.29261 8.52414 8.06903 8.38999 7.89016 8.21112C7.84544 8.1664 7.77836 8.12169 7.73365 8.07697C7.57713 7.92046 7.42062 7.74159 7.30883 7.54036L7.28647 7.49564C7.26411 7.47328 7.26411 7.45092 7.24175 7.40621C7.24175 7.36149 7.24175 7.31677 7.26411 7.29441C7.26411 7.29441 7.35355 7.18262 7.42062 7.11554C7.46534 7.07083 7.4877 7.00375 7.53242 6.95903C7.57713 6.89196 7.59949 6.80252 7.57713 6.73545C7.55478 6.62365 7.28647 6.01997 7.2194 5.88581C7.17468 5.81874 7.12996 5.79638 7.06288 5.77402H6.99581C6.95109 5.77402 6.88401 5.77402 6.81694 5.77402C6.77222 5.77402 6.7275 5.79638 6.68279 5.79638L6.66043 5.81874C6.61571 5.8411 6.57099 5.88581 6.52627 5.90817C6.48156 5.95289 6.4592 5.99761 6.41448 6.04232C6.25797 6.24355 6.16854 6.4895 6.16854 6.73545C6.16854 6.91431 6.21325 7.09318 6.28033 7.2497L6.30269 7.31677C6.50392 7.74159 6.77222 8.12169 7.12996 8.45707L7.2194 8.5465C7.28647 8.61358 7.35355 8.65829 7.39827 8.72537C7.8678 9.12783 8.40441 9.41849 9.00809 9.575C9.07517 9.59736 9.1646 9.59736 9.23168 9.61972C9.29876 9.61972 9.38819 9.61972 9.45527 9.61972C9.56706 9.61972 9.70121 9.575 9.79065 9.53028C9.85773 9.48557 9.90244 9.48557 9.94716 9.44085L9.99188 9.39613C10.0366 9.35142 10.0813 9.32906 10.126 9.28434C10.1707 9.23962 10.2155 9.1949 10.2378 9.15019C10.2825 9.06075 10.3049 8.94896 10.3273 8.83716C10.3273 8.79245 10.3273 8.72537 10.3273 8.68065C10.3273 8.68065 10.3049 8.6583 10.2602 8.63594Z" fill="white"/>
</g>
</svg>
