<svg width="44" height="44" viewBox="0 0 44 44" fill="none" xmlns="http://www.w3.org/2000/svg">
<g id="Frame 1948754735">
<g id="&#208;&#159;&#208;&#190;&#208;&#187;&#209;&#140;&#208;&#183;&#208;&#190;&#208;&#178;&#208;&#176;&#209;&#130;&#208;&#181;&#208;&#187;&#209;&#140;">
<path id="Vector" d="M22.0026 10.165C18.9459 10.165 16.4609 12.6861 16.4609 15.787C16.4609 18.8288 18.8059 21.2906 21.8626 21.3972C21.9559 21.3853 22.0493 21.3853 22.1193 21.3972C22.1426 21.3972 22.1543 21.3972 22.1776 21.3972C22.1893 21.3972 22.1893 21.3972 22.2009 21.3972C25.1876 21.2906 27.5326 18.8288 27.5443 15.787C27.5443 12.6861 25.0593 10.165 22.0026 10.165Z" fill="#E5EFF0"/>
<path id="Vector_2" opacity="0.4" d="M27.9291 24.5448C24.6741 22.3434 19.3657 22.3434 16.0874 24.5448C14.6057 25.5509 13.7891 26.912 13.7891 28.3678C13.7891 29.8236 14.6057 31.1728 16.0757 32.167C17.7091 33.2796 19.8557 33.8359 22.0024 33.8359C24.1491 33.8359 26.2957 33.2796 27.9291 32.167C29.3991 31.161 30.2157 29.8117 30.2157 28.3441C30.2041 26.8883 29.3991 25.539 27.9291 24.5448Z" fill="#E5EFF0"/>
</g>
</g>
</svg>
