<svg width="16" height="19" viewBox="0 0 16 19" fill="none" xmlns="http://www.w3.org/2000/svg">
<g id="Frame" clip-path="url(#clip0_95_18725)">
<path id="Vector" d="M8.00044 3.5834V1.0259C8.00044 0.613402 7.50544 0.411735 7.22127 0.705069L3.73794 4.17923C3.5546 4.36257 3.5546 4.64673 3.73794 4.83007L7.2121 8.30423C7.50544 8.5884 8.00044 8.38673 8.00044 7.97423V5.41673C11.4196 5.41673 14.1237 8.55173 13.3721 12.0993C12.9412 14.1801 11.2546 15.8576 9.18294 16.2884C5.91044 16.9759 2.99544 14.7301 2.55544 11.6959C2.49127 11.2559 2.10627 10.9168 1.6571 10.9168C1.1071 10.9168 0.6671 11.4026 0.740433 11.9526C1.30877 15.9768 5.14044 18.9559 9.47627 18.1126C12.3362 17.5534 14.6371 15.2526 15.1962 12.3926C16.1037 7.69007 12.5287 3.5834 8.00044 3.5834Z" fill="url(#paint0_linear_95_18725)"/>
</g>
<defs>
<linearGradient id="paint0_linear_95_18725" x1="-0.947632" y1="-6.90294" x2="19.2615" y2="-6.67653" gradientUnits="userSpaceOnUse">
<stop stop-color="#1F877B"/>
<stop offset="1" stop-color="#1F877B" stop-opacity="0.66"/>
</linearGradient>
<clipPath id="clip0_95_18725">
<rect width="16" height="19" fill="white"/>
</clipPath>
</defs>
</svg>
