<svg width="20" height="20" viewBox="0 0 20 20" fill="none" xmlns="http://www.w3.org/2000/svg">
<path fill-rule="evenodd" clip-rule="evenodd" d="M14.6094 0.75C14.6094 0.335786 14.2736 0 13.8594 0C13.4452 0 13.1094 0.335786 13.1094 0.75V2.16742H6.53906V0.75C6.53906 0.335786 6.20328 0 5.78906 0C5.37485 0 5.03906 0.335786 5.03906 0.75V2.16742H2.76652C1.31831 2.16742 0 3.23656 0 4.72392V8.98938V17.3694C0 18.8568 1.31831 19.9259 2.76652 19.9259H16.8821C18.3303 19.9259 19.6487 18.8568 19.6487 17.3694V8.98938V4.72392C19.6487 3.23656 18.3303 2.16742 16.8821 2.16742H14.6094V0.75ZM18.1487 8.23938V4.72392C18.1487 4.21588 17.6613 3.66742 16.8821 3.66742H14.6094V4.86881C14.6094 5.28303 14.2736 5.61881 13.8594 5.61881C13.4452 5.61881 13.1094 5.28303 13.1094 4.86881V3.66742H6.53906V4.86881C6.53906 5.28303 6.20328 5.61881 5.78906 5.61881C5.37485 5.61881 5.03906 5.28303 5.03906 4.86881V3.66742H2.76652C1.98734 3.66742 1.5 4.21588 1.5 4.72392V8.23938H18.1487ZM1.5 9.73938H18.1487V17.3694C18.1487 17.8774 17.6613 18.4259 16.8821 18.4259H2.76652C1.98734 18.4259 1.5 17.8774 1.5 17.3694V9.73938Z" fill="url(#paint0_linear_95_11403)"/>
<defs>
<linearGradient id="paint0_linear_95_11403" x1="-2.26016" y1="-8.41319" x2="24.9255" y2="-8.04943" gradientUnits="userSpaceOnUse">
<stop stop-color="#1F877B"/>
<stop offset="1" stop-color="#1F877B" stop-opacity="0.66"/>
</linearGradient>
</defs>
</svg>
