<svg width="20" height="20" viewBox="0 0 20 20" fill="none" xmlns="http://www.w3.org/2000/svg">
<g id="icons/misc/close search/default">
<path id="Combined Shape" opacity="0.25" fill-rule="evenodd" clip-rule="evenodd" d="M10 20C15.5228 20 20 15.5228 20 10C20 4.47715 15.5228 0 10 0C4.47715 0 0 4.47715 0 10C0 15.5228 4.47715 20 10 20ZM12.5713 6.14305C12.9263 5.78803 13.5019 5.78803 13.8569 6.14305C14.212 6.49808 14.212 7.07368 13.8569 7.4287L11.2856 10L13.8569 12.5713C14.212 12.9263 14.212 13.5019 13.8569 13.8569C13.5019 14.212 12.9263 14.212 12.5713 13.8569L10 11.2856L7.4287 13.8569C7.07368 14.212 6.49808 14.212 6.14305 13.8569C5.78803 13.5019 5.78803 12.9263 6.14305 12.5713L8.71435 10L6.14305 7.4287C5.78803 7.07368 5.78803 6.49808 6.14305 6.14305C6.49808 5.78803 7.07368 5.78803 7.4287 6.14305L10 8.71435L12.5713 6.14305Z" fill="#93969D"/>
</g>
</svg>
