<svg width="20" height="20" viewBox="0 0 20 20" fill="none" xmlns="http://www.w3.org/2000/svg">
<g id="Component 3">
<rect id="Rectangle 1219" width="20" height="20" rx="10" fill="#E44342"/>
<path id="%" d="M10.3815 12.9224V12.4292C10.3815 12.0548 10.4702 11.7108 10.6477 11.3973C10.8286 11.0807 11.0898 10.828 11.4311 10.6393C11.7759 10.4475 12.1958 10.3516 12.6907 10.3516C13.1925 10.3516 13.6141 10.446 13.9555 10.6347C14.3002 10.8234 14.5597 11.0761 14.7337 11.3927C14.9112 11.7062 15 12.0518 15 12.4292V12.9224C15 13.2968 14.9112 13.6423 14.7337 13.9589C14.5562 14.2725 14.2951 14.5236 13.9503 14.7123C13.6056 14.9041 13.1857 15 12.6907 15C12.1889 15 11.7674 14.9041 11.426 14.7123C11.0847 14.5236 10.8252 14.2725 10.6477 13.9589C10.4702 13.6423 10.3815 13.2968 10.3815 12.9224ZM11.8715 12.4292V12.9224C11.8715 13.1385 11.9295 13.3425 12.0456 13.5342C12.165 13.726 12.3801 13.8219 12.6907 13.8219C13.0014 13.8219 13.213 13.7275 13.3257 13.5388C13.4417 13.3501 13.4997 13.1446 13.4997 12.9224V12.4292C13.4997 12.207 13.4451 12 13.3359 11.8082C13.2267 11.6164 13.0116 11.5205 12.6907 11.5205C12.3835 11.5205 12.1702 11.6164 12.0507 11.8082C11.9312 12 11.8715 12.207 11.8715 12.4292ZM5 7.57078V7.07763C5 6.70015 5.09046 6.35464 5.27138 6.0411C5.4523 5.7245 5.71343 5.47184 6.05479 5.28311C6.39956 5.09437 6.81601 5 7.30415 5C7.80935 5 8.23263 5.09437 8.57399 5.28311C8.91534 5.47184 9.17477 5.7245 9.35228 6.0411C9.52978 6.35464 9.61854 6.70015 9.61854 7.07763V7.57078C9.61854 7.94825 9.52808 8.29376 9.34716 8.60731C9.16965 8.92085 8.90852 9.17199 8.56375 9.36073C8.22239 9.54642 7.80253 9.63927 7.30415 9.63927C6.80577 9.63927 6.3842 9.5449 6.03943 9.35616C5.69807 9.16438 5.43864 8.91324 5.26114 8.60274C5.08705 8.28919 5 7.9452 5 7.57078ZM6.50026 7.07763V7.57078C6.50026 7.793 6.55829 7.99848 6.67435 8.18721C6.79382 8.37595 7.00375 8.47032 7.30415 8.47032C7.61819 8.47032 7.83154 8.37595 7.94419 8.18721C8.06025 7.99848 8.11828 7.793 8.11828 7.57078V7.07763C8.11828 6.8554 8.06366 6.6484 7.95443 6.45662C7.8452 6.26484 7.62843 6.16895 7.30415 6.16895C7.00034 6.16895 6.79041 6.26636 6.67435 6.46119C6.55829 6.65601 6.50026 6.86149 6.50026 7.07763ZM5.67588 14.6758L12.8853 5.3242H14.2268L7.01741 14.6758H5.67588Z" fill="white"/>
</g>
</svg>
