<svg width="88" height="95" viewBox="0 0 88 95" fill="none" xmlns="http://www.w3.org/2000/svg">
<g id="Frame 1948754500" clip-path="url(#clip0_281_37382)">
<g id="Icon">
<path d="M41.3273 10.54C40.3513 10.6932 39.6827 11.5993 39.8341 12.5638L46.0256 52.0137C46.4797 54.9073 44.4741 57.6256 41.546 58.0852L9.73459 63.0778C8.75854 63.231 8.09001 64.1371 8.24139 65.1017L19.0441 133.933C20.7093 144.543 30.7629 151.779 41.4995 150.094L112.191 138.999C122.928 137.314 130.282 127.347 128.617 116.737L113.267 18.9339C111.602 8.32384 101.548 1.08865 90.8117 2.7737L41.3273 10.54Z" fill="#E5EFF0" fill-opacity="0.15"/>
<path d="M27.0054 15.5678C27.8932 14.5989 29.3834 15.2035 29.5857 16.4924L34.3254 46.692C34.4767 47.6565 33.8082 48.5626 32.8322 48.7158L9.51556 52.3752C8.68391 52.5057 8.0227 51.7216 8.40286 50.9779L25.1009 18.3087C25.6148 17.3033 26.2577 16.3838 27.0054 15.5678Z" fill="#E5EFF0" fill-opacity="0.15"/>
</g>
</g>
<defs>
<clipPath id="clip0_281_37382">
<rect width="86.7717" height="95" fill="white" transform="matrix(-1 0 0 1 87.3848 0)"/>
</clipPath>
</defs>
</svg>
