<svg width="20" height="21" viewBox="0 0 20 21" fill="none" xmlns="http://www.w3.org/2000/svg">
<path d="M0.640625 16.4329V19.7022C0.640625 20.0033 0.877215 20.2399 1.17833 20.2399H4.44758C4.58738 20.2399 4.72718 20.1861 4.82397 20.0786L16.5674 8.34585L12.5347 4.31307L0.801936 16.0458C0.694395 16.1533 0.640625 16.2824 0.640625 16.4329ZM19.6861 5.22717C19.7858 5.12768 19.8649 5.0095 19.9189 4.8794C19.9728 4.74931 20.0006 4.60985 20.0006 4.469C20.0006 4.32816 19.9728 4.1887 19.9189 4.0586C19.8649 3.9285 19.7858 3.81033 19.6861 3.71084L17.1697 1.19438C17.0702 1.09469 16.952 1.01559 16.8219 0.961626C16.6918 0.907661 16.5524 0.879883 16.4115 0.879883C16.2707 0.879883 16.1312 0.907661 16.0011 0.961626C15.871 1.01559 15.7528 1.09469 15.6533 1.19438L13.6853 3.16238L17.7181 7.19517L19.6861 5.22717Z" fill="url(#paint0_linear_95_21619)"/>
<defs>
<linearGradient id="paint0_linear_95_21619" x1="-1.58633" y1="-7.29437" x2="25.1998" y2="-6.9309" gradientUnits="userSpaceOnUse">
<stop stop-color="#1F877B"/>
<stop offset="1" stop-color="#1F877B" stop-opacity="0.66"/>
</linearGradient>
</defs>
</svg>
